<svg width="498" height="172" viewBox="0 0 498 172" fill="none" xmlns="http://www.w3.org/2000/svg">
<rect y="0.733398" width="497.385" height="170.889" rx="5.55738" fill="#B4AAF2"/>
<path d="M26.3212 39.1596C27.1759 39.1596 27.8815 39.2636 28.4377 39.4716C28.9985 39.6797 29.4146 39.9962 29.686 40.4214C29.9619 40.8465 30.0998 41.3869 30.0998 42.0427C30.0998 42.5312 30.0093 42.9472 29.8284 43.291C29.6475 43.6347 29.4101 43.9196 29.1161 44.1457C28.8222 44.3719 28.5078 44.5528 28.1732 44.6884L30.9885 49.0776H29.1501L26.7553 45.1023H25.1611V49.0776H23.533V39.1596H26.3212ZM26.2126 40.5163H25.1611V43.7591H26.2872C27.0425 43.7591 27.5898 43.6189 27.929 43.3385C28.2727 43.058 28.4445 42.6442 28.4445 42.097C28.4445 41.5226 28.2614 41.1156 27.895 40.8759C27.5332 40.6362 26.9724 40.5163 26.2126 40.5163ZM41.2118 44.105C41.2118 44.8694 41.1146 45.5658 40.9201 46.1945C40.7302 46.8186 40.443 47.3568 40.0586 47.809C39.6742 48.2568 39.1925 48.6028 38.6136 48.847C38.0347 49.0912 37.3563 49.2133 36.5784 49.2133C35.787 49.2133 35.0995 49.0912 34.5161 48.847C33.9372 48.6028 33.4556 48.2545 33.0712 47.8023C32.6913 47.35 32.4063 46.8096 32.2164 46.1809C32.0264 45.5523 31.9315 44.8558 31.9315 44.0915C31.9315 43.0694 32.0988 42.1784 32.4335 41.4186C32.7727 40.6543 33.286 40.0618 33.9734 39.6412C34.6654 39.2161 35.5382 39.0035 36.592 39.0035C37.6232 39.0035 38.4802 39.2138 39.1631 39.6344C39.846 40.055 40.3571 40.6475 40.6963 41.4118C41.04 42.1716 41.2118 43.0694 41.2118 44.105ZM33.641 44.105C33.641 44.8694 33.745 45.5319 33.9531 46.0927C34.1611 46.649 34.4799 47.0786 34.9096 47.3817C35.3438 47.6802 35.9 47.8294 36.5784 47.8294C37.2613 47.8294 37.8176 47.6802 38.2473 47.3817C38.6769 47.0786 38.9935 46.649 39.197 46.0927C39.4005 45.5319 39.5023 44.8694 39.5023 44.105C39.5023 42.9427 39.2694 42.0337 38.8036 41.3779C38.3422 40.7176 37.6051 40.3875 36.592 40.3875C35.9136 40.3875 35.3551 40.5367 34.9164 40.8352C34.4822 41.1337 34.1611 41.5611 33.9531 42.1173C33.745 42.6691 33.641 43.3317 33.641 44.105ZM51.1299 39.1596V45.5771C51.1299 46.2691 50.9829 46.8887 50.689 47.4359C50.3995 47.9832 49.9608 48.4173 49.3729 48.7384C48.7849 49.055 48.0455 49.2133 47.1545 49.2133C45.8837 49.2133 44.9159 48.8809 44.251 48.2161C43.5907 47.5467 43.2606 46.658 43.2606 45.55V39.1596H44.8887V45.4075C44.8887 46.2352 45.0832 46.8457 45.4721 47.2392C45.8611 47.6327 46.4422 47.8294 47.2156 47.8294C47.7493 47.8294 48.1834 47.7367 48.5181 47.5513C48.8573 47.3613 49.106 47.0854 49.2643 46.7236C49.4272 46.3573 49.5086 45.9163 49.5086 45.4008V39.1596H51.1299ZM61.9435 49.0776H59.9422L55.0849 41.1608H55.0239C55.042 41.4277 55.0578 41.7103 55.0714 42.0088C55.0895 42.3073 55.103 42.6148 55.1121 42.9314C55.1256 43.248 55.1369 43.5691 55.146 43.8947V49.0776H53.6671V39.1596H55.6548L60.5053 47.0221H60.5528C60.5437 46.7915 60.5324 46.5269 60.5188 46.2284C60.5053 45.9299 60.4917 45.6224 60.4781 45.3058C60.4691 44.9847 60.4623 44.6749 60.4578 44.3764V39.1596H61.9435V49.0776ZM72.601 44.0236C72.601 45.1407 72.3929 46.0746 71.9769 46.8254C71.5608 47.5716 70.957 48.1347 70.1656 48.5146C69.3741 48.8899 68.4198 49.0776 67.3027 49.0776H64.5485V39.1596H67.6012C68.6279 39.1596 69.5143 39.345 70.2605 39.7158C71.0068 40.0822 71.5834 40.6271 71.9904 41.3508C72.3975 42.0699 72.601 42.9608 72.601 44.0236ZM70.905 44.0711C70.905 43.257 70.7761 42.5877 70.5183 42.0631C70.2651 41.5385 69.8897 41.1495 69.3922 40.8962C68.8992 40.6385 68.2909 40.5096 67.5673 40.5096H66.1766V47.7141H67.3299C68.5284 47.7141 69.4238 47.4088 70.0163 46.7982C70.6088 46.1877 70.905 45.2786 70.905 44.0711ZM82.5258 39.1596V45.5771C82.5258 46.2691 82.3789 46.8887 82.0849 47.4359C81.7954 47.9832 81.3567 48.4173 80.7688 48.7384C80.1809 49.055 79.4414 49.2133 78.5505 49.2133C77.2796 49.2133 76.3118 48.8809 75.647 48.2161C74.9867 47.5467 74.6565 46.658 74.6565 45.55V39.1596H76.2846V45.4075C76.2846 46.2352 76.4791 46.8457 76.8681 47.2392C77.257 47.6327 77.8382 47.8294 78.6115 47.8294C79.1452 47.8294 79.5794 47.7367 79.914 47.5513C80.2532 47.3613 80.502 47.0854 80.6603 46.7236C80.8231 46.3573 80.9045 45.9163 80.9045 45.4008V39.1596H82.5258ZM87.9462 39.1596C89.2261 39.1596 90.16 39.4219 90.7479 39.9465C91.3359 40.4711 91.6298 41.206 91.6298 42.1513C91.6298 42.5809 91.562 42.9902 91.4263 43.3792C91.2952 43.7636 91.0781 44.105 90.7751 44.4035C90.4721 44.6975 90.0718 44.9304 89.5743 45.1023C89.0814 45.2741 88.4731 45.3601 87.7494 45.3601H86.6912V49.0776H85.063V39.1596H87.9462ZM87.8376 40.5096H86.6912V44.0033H87.5798C88.0909 44.0033 88.5251 43.9445 88.8824 43.8269C89.2396 43.7048 89.511 43.5126 89.6964 43.2503C89.8819 42.9879 89.9746 42.642 89.9746 42.2123C89.9746 41.638 89.8004 41.2106 89.4522 40.9302C89.1085 40.6498 88.5703 40.5096 87.8376 40.5096ZM99.3364 46.3776C99.3364 46.9656 99.1916 47.4721 98.9022 47.8972C98.6173 48.3224 98.2057 48.648 97.6675 48.8741C97.1338 49.1002 96.4962 49.2133 95.7545 49.2133C95.3926 49.2133 95.0467 49.193 94.7165 49.1523C94.3864 49.1116 94.0743 49.0528 93.7803 48.9759C93.4909 48.8945 93.2263 48.7972 92.9866 48.6842V47.151C93.3891 47.3274 93.8391 47.4879 94.3366 47.6327C94.8341 47.7729 95.3406 47.843 95.8562 47.843C96.2768 47.843 96.6251 47.7887 96.9009 47.6802C97.1813 47.5671 97.3894 47.4088 97.5251 47.2053C97.6607 46.9972 97.7286 46.7553 97.7286 46.4794C97.7286 46.1854 97.6494 45.9367 97.4911 45.7332C97.3328 45.5297 97.0931 45.3442 96.772 45.1769C96.4555 45.005 96.0575 44.8219 95.5781 44.6274C95.2524 44.4962 94.9404 44.347 94.6419 44.1797C94.3479 44.0123 94.0856 43.8156 93.855 43.5895C93.6243 43.3633 93.4411 43.0965 93.3055 42.789C93.1743 42.4769 93.1087 42.1106 93.1087 41.69C93.1087 41.1292 93.2421 40.6498 93.509 40.2518C93.7803 39.8538 94.1602 39.5485 94.6487 39.3359C95.1416 39.1234 95.716 39.0171 96.3718 39.0171C96.8919 39.0171 97.3803 39.0714 97.8371 39.1799C98.2984 39.2885 98.7507 39.4422 99.1939 39.6412L98.6783 40.9505C98.2713 40.7832 97.8756 40.6498 97.4911 40.5503C97.1112 40.4508 96.7223 40.401 96.3243 40.401C95.9806 40.401 95.6889 40.453 95.4492 40.557C95.2095 40.6611 95.0263 40.8081 94.8997 40.998C94.7776 41.1834 94.7165 41.405 94.7165 41.6628C94.7165 41.9523 94.7866 42.1965 94.9268 42.3955C95.0715 42.59 95.2931 42.7686 95.5916 42.9314C95.8947 43.0942 96.2836 43.2751 96.7585 43.4741C97.3057 43.7003 97.7693 43.9377 98.1492 44.1864C98.5336 44.4352 98.8276 44.7337 99.0311 45.0819C99.2346 45.4256 99.3364 45.8575 99.3364 46.3776Z" fill="black" fill-opacity="0.76"/>
<path d="M30.4851 139.606H23.8586V127.705H30.4851V128.926H25.2425V132.776H30.1839V133.981H25.2425V138.385H30.4851V139.606ZM36.2569 130.538C37.3206 130.538 38.1102 130.777 38.6258 131.254C39.1414 131.732 39.3992 132.494 39.3992 133.542V139.606H38.4142L38.1537 138.288H38.0885C37.8389 138.613 37.5784 138.887 37.307 139.11C37.0357 139.327 36.7209 139.492 36.3627 139.606C36.0099 139.715 35.5758 139.769 35.0602 139.769C34.5175 139.769 34.0345 139.674 33.6112 139.484C33.1933 139.294 32.8622 139.007 32.618 138.621C32.3792 138.236 32.2598 137.748 32.2598 137.156C32.2598 136.266 32.6126 135.582 33.3181 135.105C34.0236 134.627 35.0982 134.367 36.5418 134.323L38.0804 134.258V133.713C38.0804 132.942 37.9149 132.402 37.5838 132.093C37.2528 131.783 36.786 131.629 36.1836 131.629C35.7169 131.629 35.2719 131.696 34.8485 131.832C34.4252 131.968 34.0236 132.128 33.6437 132.312L33.2285 131.287C33.6301 131.08 34.0915 130.904 34.6125 130.758C35.1335 130.611 35.6816 130.538 36.2569 130.538ZM38.0641 135.21L36.7046 135.267C35.5921 135.311 34.8078 135.493 34.352 135.813C33.8961 136.133 33.6681 136.586 33.6681 137.172C33.6681 137.683 33.8228 138.06 34.1322 138.304C34.4415 138.548 34.8512 138.67 35.3614 138.67C36.1538 138.67 36.8023 138.45 37.307 138.011C37.8117 137.571 38.0641 136.912 38.0641 136.033V135.21ZM46.2374 130.521C46.4165 130.521 46.6037 130.532 46.7991 130.554C46.9944 130.57 47.1681 130.595 47.3201 130.627L47.1491 131.881C47.0026 131.843 46.8398 131.813 46.6607 131.791C46.4816 131.77 46.3133 131.759 46.156 131.759C45.7978 131.759 45.4586 131.832 45.1384 131.979C44.8236 132.12 44.5468 132.326 44.308 132.597C44.0692 132.863 43.882 133.186 43.7463 133.566C43.6106 133.941 43.5428 134.358 43.5428 134.82V139.606H42.1833V130.684H43.3067L43.4532 132.329H43.5102C43.6948 131.998 43.9173 131.696 44.1778 131.425C44.4383 131.148 44.7395 130.928 45.0814 130.766C45.4287 130.603 45.814 130.521 46.2374 130.521ZM53.2302 130.521C54.2885 130.521 55.089 130.782 55.6317 131.303C56.1744 131.819 56.4458 132.649 56.4458 133.794V139.606H55.1107V133.884C55.1107 133.14 54.9398 132.584 54.5978 132.215C54.2614 131.846 53.7431 131.661 53.043 131.661C52.0552 131.661 51.3606 131.941 50.959 132.5C50.5574 133.059 50.3565 133.87 50.3565 134.934V139.606H49.0052V130.684H50.096L50.2996 131.97H50.3728C50.5628 131.656 50.8043 131.392 51.0974 131.181C51.3904 130.964 51.7188 130.801 52.0824 130.692C52.446 130.578 52.8286 130.521 53.2302 130.521ZM62.6653 130.521C63.4251 130.521 64.0763 130.69 64.619 131.026C65.1617 131.363 65.5769 131.835 65.8646 132.443C66.1522 133.045 66.296 133.751 66.296 134.559V135.398H60.1335C60.1498 136.445 60.4103 137.243 60.915 137.791C61.4197 138.339 62.1307 138.613 63.0479 138.613C63.6123 138.613 64.1116 138.562 64.5458 138.459C64.9799 138.355 65.4304 138.204 65.8971 138.003V139.191C65.4467 139.392 64.9989 139.539 64.5539 139.631C64.1143 139.723 63.5933 139.769 62.9909 139.769C62.1334 139.769 61.3845 139.596 60.7441 139.248C60.1091 138.895 59.6152 138.38 59.2625 137.702C58.9097 137.023 58.7333 136.193 58.7333 135.21C58.7333 134.25 58.8934 133.42 59.2136 132.719C59.5392 132.014 59.9951 131.471 60.5813 131.091C61.1728 130.711 61.8675 130.521 62.6653 130.521ZM62.649 131.629C61.9272 131.629 61.3519 131.865 60.9232 132.337C60.4944 132.809 60.2393 133.468 60.1579 134.315H64.8795C64.8741 133.783 64.79 133.316 64.6272 132.915C64.4698 132.508 64.2283 132.193 63.9027 131.97C63.577 131.743 63.1591 131.629 62.649 131.629ZM71.7666 139.769C70.6377 139.769 69.7422 139.384 69.0801 138.613C68.4234 137.843 68.0951 136.698 68.0951 135.178C68.0951 133.642 68.4316 132.483 69.1046 131.702C69.7775 130.915 70.673 130.521 71.791 130.521C72.2631 130.521 72.6756 130.584 73.0284 130.709C73.3811 130.833 73.685 131.002 73.9401 131.213C74.1952 131.42 74.4096 131.656 74.5832 131.922H74.6809C74.6592 131.753 74.6375 131.523 74.6158 131.23C74.5941 130.937 74.5832 130.698 74.5832 130.513V126.94H75.9346V139.606H74.8437L74.6402 138.336H74.5832C74.415 138.602 74.2006 138.844 73.9401 139.061C73.685 139.278 73.3784 139.452 73.0202 139.582C72.6675 139.707 72.2496 139.769 71.7666 139.769ZM71.9782 138.646C72.9334 138.646 73.6091 138.374 74.0052 137.832C74.4014 137.289 74.5995 136.483 74.5995 135.414V135.17C74.5995 134.036 74.4096 133.164 74.0297 132.557C73.6552 131.949 72.9714 131.645 71.9782 131.645C71.1479 131.645 70.5265 131.965 70.114 132.605C69.7015 133.24 69.4953 134.109 69.4953 135.21C69.4953 136.307 69.6988 137.153 70.1059 137.75C70.5183 138.347 71.1424 138.646 71.9782 138.646ZM81.7226 130.684H83.1717L85.1417 135.862C85.2557 136.166 85.3615 136.459 85.4592 136.741C85.5569 137.018 85.6437 137.284 85.7197 137.539C85.7957 137.794 85.8554 138.041 85.8988 138.28H85.9558C86.0318 138.008 86.1403 137.653 86.2814 137.213C86.4225 136.768 86.5745 136.315 86.7373 135.854L88.6015 130.684H90.0587L86.1756 140.917C85.9693 141.465 85.7278 141.943 85.4511 142.35C85.1797 142.757 84.8486 143.069 84.4579 143.286C84.0671 143.509 83.595 143.62 83.0414 143.62C82.7863 143.62 82.5611 143.604 82.3657 143.571C82.1704 143.544 82.0021 143.511 81.861 143.473V142.391C81.9804 142.418 82.1242 142.442 82.2925 142.464C82.4661 142.486 82.6452 142.496 82.8298 142.496C83.1662 142.496 83.4566 142.431 83.7008 142.301C83.9505 142.176 84.1648 141.992 84.3439 141.747C84.523 141.503 84.6777 141.213 84.8079 140.876L85.2964 139.623L81.7226 130.684ZM94.9187 130.521C95.6785 130.521 96.3297 130.69 96.8724 131.026C97.4152 131.363 97.8303 131.835 98.118 132.443C98.4056 133.045 98.5494 133.751 98.5494 134.559V135.398H92.3869C92.4032 136.445 92.6637 137.243 93.1684 137.791C93.6732 138.339 94.3841 138.613 95.3013 138.613C95.8657 138.613 96.365 138.562 96.7992 138.459C97.2333 138.355 97.6838 138.204 98.1505 138.003V139.191C97.7001 139.392 97.2523 139.539 96.8073 139.631C96.3677 139.723 95.8467 139.769 95.2443 139.769C94.3868 139.769 93.6379 139.596 92.9975 139.248C92.3625 138.895 91.8686 138.38 91.5159 137.702C91.1631 137.023 90.9867 136.193 90.9867 135.21C90.9867 134.25 91.1468 133.42 91.467 132.719C91.7927 132.014 92.2485 131.471 92.8347 131.091C93.4262 130.711 94.1209 130.521 94.9187 130.521ZM94.9024 131.629C94.1806 131.629 93.6053 131.865 93.1766 132.337C92.7478 132.809 92.4928 133.468 92.4113 134.315H97.1329C97.1275 133.783 97.0434 133.316 96.8806 132.915C96.7232 132.508 96.4817 132.193 96.1561 131.97C95.8304 131.743 95.4125 131.629 94.9024 131.629ZM106.617 137.164C106.617 137.734 106.473 138.214 106.185 138.605C105.903 138.99 105.496 139.281 104.964 139.476C104.438 139.672 103.808 139.769 103.076 139.769C102.452 139.769 101.912 139.72 101.456 139.623C101 139.525 100.601 139.387 100.259 139.208V137.962C100.623 138.141 101.057 138.304 101.561 138.45C102.066 138.597 102.582 138.67 103.108 138.67C103.879 138.67 104.438 138.545 104.785 138.296C105.133 138.046 105.306 137.707 105.306 137.278C105.306 137.034 105.236 136.82 105.095 136.635C104.959 136.445 104.728 136.263 104.403 136.09C104.077 135.911 103.627 135.715 103.051 135.504C102.481 135.286 101.988 135.072 101.57 134.86C101.157 134.643 100.837 134.38 100.609 134.071C100.387 133.761 100.275 133.36 100.275 132.866C100.275 132.112 100.579 131.534 101.187 131.132C101.8 130.725 102.603 130.521 103.597 130.521C104.134 130.521 104.636 130.576 105.103 130.684C105.575 130.787 106.014 130.928 106.421 131.108L105.966 132.19C105.597 132.033 105.203 131.9 104.785 131.791C104.367 131.683 103.941 131.629 103.507 131.629C102.883 131.629 102.403 131.732 102.066 131.938C101.735 132.144 101.57 132.426 101.57 132.785C101.57 133.061 101.646 133.289 101.798 133.468C101.955 133.647 102.205 133.816 102.547 133.973C102.888 134.13 103.339 134.315 103.898 134.527C104.457 134.733 104.94 134.947 105.347 135.17C105.754 135.387 106.066 135.653 106.283 135.968C106.506 136.277 106.617 136.676 106.617 137.164ZM111.672 138.662C111.895 138.662 112.123 138.643 112.356 138.605C112.589 138.567 112.779 138.521 112.926 138.467V139.517C112.768 139.587 112.549 139.647 112.266 139.696C111.99 139.745 111.718 139.769 111.452 139.769C110.98 139.769 110.552 139.688 110.166 139.525C109.781 139.357 109.472 139.075 109.238 138.678C109.01 138.282 108.896 137.734 108.896 137.034V131.743H107.626V131.083L108.904 130.554L109.442 128.617H110.256V130.684H112.869V131.743H110.256V136.993C110.256 137.552 110.383 137.97 110.638 138.247C110.899 138.524 111.243 138.662 111.672 138.662ZM118.168 130.521C118.928 130.521 119.58 130.69 120.122 131.026C120.665 131.363 121.08 131.835 121.368 132.443C121.655 133.045 121.799 133.751 121.799 134.559V135.398H115.637C115.653 136.445 115.914 137.243 116.418 137.791C116.923 138.339 117.634 138.613 118.551 138.613C119.116 138.613 119.615 138.562 120.049 138.459C120.483 138.355 120.934 138.204 121.4 138.003V139.191C120.95 139.392 120.502 139.539 120.057 139.631C119.618 139.723 119.097 139.769 118.494 139.769C117.637 139.769 116.888 139.596 116.247 139.248C115.612 138.895 115.118 138.38 114.766 137.702C114.413 137.023 114.237 136.193 114.237 135.21C114.237 134.25 114.397 133.42 114.717 132.719C115.042 132.014 115.498 131.471 116.084 131.091C116.676 130.711 117.371 130.521 118.168 130.521ZM118.152 131.629C117.43 131.629 116.855 131.865 116.426 132.337C115.998 132.809 115.743 133.468 115.661 134.315H120.383C120.377 133.783 120.293 133.316 120.13 132.915C119.973 132.508 119.731 132.193 119.406 131.97C119.08 131.743 118.662 131.629 118.152 131.629ZM128.149 130.521C128.328 130.521 128.515 130.532 128.711 130.554C128.906 130.57 129.08 130.595 129.232 130.627L129.061 131.881C128.914 131.843 128.751 131.813 128.572 131.791C128.393 131.77 128.225 131.759 128.068 131.759C127.709 131.759 127.37 131.832 127.05 131.979C126.735 132.12 126.458 132.326 126.22 132.597C125.981 132.863 125.794 133.186 125.658 133.566C125.522 133.941 125.454 134.358 125.454 134.82V139.606H124.095V130.684H125.218L125.365 132.329H125.422C125.606 131.998 125.829 131.696 126.089 131.425C126.35 131.148 126.651 130.928 126.993 130.766C127.34 130.603 127.726 130.521 128.149 130.521ZM134.092 139.769C132.963 139.769 132.067 139.384 131.405 138.613C130.749 137.843 130.42 136.698 130.42 135.178C130.42 133.642 130.757 132.483 131.43 131.702C132.103 130.915 132.998 130.521 134.116 130.521C134.588 130.521 135.001 130.584 135.353 130.709C135.706 130.833 136.01 131.002 136.265 131.213C136.52 131.42 136.735 131.656 136.908 131.922H137.006C136.984 131.753 136.963 131.523 136.941 131.23C136.919 130.937 136.908 130.698 136.908 130.513V126.94H138.26V139.606H137.169L136.965 138.336H136.908C136.74 138.602 136.526 138.844 136.265 139.061C136.01 139.278 135.704 139.452 135.345 139.582C134.993 139.707 134.575 139.769 134.092 139.769ZM134.303 138.646C135.259 138.646 135.934 138.374 136.33 137.832C136.727 137.289 136.925 136.483 136.925 135.414V135.17C136.925 134.036 136.735 133.164 136.355 132.557C135.98 131.949 135.296 131.645 134.303 131.645C133.473 131.645 132.852 131.965 132.439 132.605C132.027 133.24 131.82 134.109 131.82 135.21C131.82 136.307 132.024 137.153 132.431 137.75C132.843 138.347 133.468 138.646 134.303 138.646ZM144.463 130.538C145.527 130.538 146.316 130.777 146.832 131.254C147.347 131.732 147.605 132.494 147.605 133.542V139.606H146.62L146.36 138.288H146.295C146.045 138.613 145.784 138.887 145.513 139.11C145.242 139.327 144.927 139.492 144.569 139.606C144.216 139.715 143.782 139.769 143.266 139.769C142.724 139.769 142.241 139.674 141.817 139.484C141.399 139.294 141.068 139.007 140.824 138.621C140.585 138.236 140.466 137.748 140.466 137.156C140.466 136.266 140.819 135.582 141.524 135.105C142.23 134.627 143.304 134.367 144.748 134.323L146.286 134.258V133.713C146.286 132.942 146.121 132.402 145.79 132.093C145.459 131.783 144.992 131.629 144.39 131.629C143.923 131.629 143.478 131.696 143.055 131.832C142.631 131.968 142.23 132.128 141.85 132.312L141.435 131.287C141.836 131.08 142.297 130.904 142.818 130.758C143.339 130.611 143.888 130.538 144.463 130.538ZM146.27 135.21L144.911 135.267C143.798 135.311 143.014 135.493 142.558 135.813C142.102 136.133 141.874 136.586 141.874 137.172C141.874 137.683 142.029 138.06 142.338 138.304C142.648 138.548 143.057 138.67 143.567 138.67C144.36 138.67 145.008 138.45 145.513 138.011C146.018 137.571 146.27 136.912 146.27 136.033V135.21ZM148.981 130.684H150.43L152.4 135.862C152.514 136.166 152.62 136.459 152.718 136.741C152.815 137.018 152.902 137.284 152.978 137.539C153.054 137.794 153.114 138.041 153.157 138.28H153.214C153.29 138.008 153.399 137.653 153.54 137.213C153.681 136.768 153.833 136.315 153.996 135.854L155.86 130.684H157.317L153.434 140.917C153.228 141.465 152.986 141.943 152.709 142.35C152.438 142.757 152.107 143.069 151.716 143.286C151.326 143.509 150.853 143.62 150.3 143.62C150.045 143.62 149.819 143.604 149.624 143.571C149.429 143.544 149.26 143.511 149.119 143.473V142.391C149.239 142.418 149.383 142.442 149.551 142.464C149.725 142.486 149.904 142.496 150.088 142.496C150.425 142.496 150.715 142.431 150.959 142.301C151.209 142.176 151.423 141.992 151.602 141.747C151.781 141.503 151.936 141.213 152.066 140.876L152.555 139.623L148.981 130.684Z" fill="black" fill-opacity="0.76"/>
<path d="M31.0806 103.643L24.5785 92.3005V89.6274H26.7458C27.6128 89.6274 28.3714 89.507 29.0216 89.2661C29.6959 89.0012 30.2498 88.628 30.6832 88.1463C31.1408 87.6647 31.4539 87.0867 31.6224 86.4124H24.5785V83.7393H31.5863C31.4418 83.1132 31.189 82.5593 30.8277 82.0777C30.4906 81.596 30.033 81.2228 29.4551 80.9579C28.9012 80.6689 28.2269 80.5244 27.4322 80.5244H24.5785V77.8513H40.8699V80.5244H35.1986C35.608 80.9819 35.9451 81.4756 36.2101 82.0054C36.499 82.5352 36.6917 83.1132 36.788 83.7393H40.8699V86.4124H36.8603C36.6194 88.1945 35.9331 89.5912 34.8013 90.6027C33.6694 91.59 32.2124 92.2643 30.4304 92.6256L37.5105 103.643H31.0806ZM62.2691 88.8623C62.2691 90.3439 62.1574 91.8137 61.934 93.2718C61.7223 94.7299 61.346 96.1057 60.8051 97.3992C60.2642 98.6809 59.5058 99.8215 58.5298 100.821C57.5538 101.809 56.3133 102.585 54.8081 103.149C53.303 103.714 51.4804 103.996 49.3403 103.996C48.8347 103.996 48.2409 103.972 47.5589 103.925C46.8769 103.89 46.3124 103.831 45.8656 103.749V99.3746C46.336 99.4922 46.8357 99.5863 47.3648 99.6568C47.894 99.7156 48.429 99.745 48.9699 99.745C51.1218 99.745 52.7798 99.404 53.9439 98.722C55.1198 98.04 55.9429 97.0934 56.4132 95.8823C56.8953 94.6711 57.1717 93.2718 57.2422 91.6844H57.0306C56.6895 92.2488 56.2839 92.7603 55.8135 93.2189C55.3549 93.6657 54.767 94.0244 54.0497 94.2948C53.3324 94.5535 52.4211 94.6829 51.3158 94.6829C49.8459 94.6829 48.5642 94.3654 47.4707 93.7304C46.3889 93.0837 45.5481 92.1547 44.9484 90.9436C44.3605 89.7207 44.0665 88.245 44.0665 86.5164C44.0665 84.6468 44.4193 83.0476 45.1248 81.7188C45.8421 80.3783 46.8592 79.3494 48.1762 78.6322C49.4932 77.9149 51.0453 77.5562 52.8327 77.5562C54.1497 77.5562 55.3784 77.7855 56.519 78.2441C57.6596 78.691 58.6591 79.3788 59.5175 80.3078C60.3877 81.2367 61.0638 82.4126 61.5459 83.8354C62.028 85.2582 62.2691 86.9339 62.2691 88.8623ZM52.9385 81.9305C51.8802 81.9305 51.0159 82.295 50.3457 83.0241C49.6754 83.7531 49.3403 84.8937 49.3403 86.4459C49.3403 87.6923 49.6284 88.68 50.2046 89.4091C50.7808 90.1381 51.6568 90.5026 52.8327 90.5026C53.644 90.5026 54.3496 90.3263 54.9493 89.9735C55.5489 89.609 56.0134 89.1563 56.3427 88.6154C56.6837 88.0627 56.8542 87.4983 56.8542 86.9221C56.8542 86.3224 56.7719 85.7286 56.6072 85.1406C56.4426 84.5527 56.1957 84.0177 55.8664 83.5356C55.5372 83.0535 55.1256 82.6654 54.6318 82.3714C54.1497 82.0775 53.5852 81.9305 52.9385 81.9305ZM73.9103 77.521C75.3919 77.521 76.7559 77.7503 78.0023 78.2088C79.2605 78.6674 80.2659 79.3612 81.0184 80.2901C81.771 81.2073 82.1473 82.3597 82.1473 83.7472C82.1473 84.782 81.9415 85.6874 81.53 86.4635C81.1302 87.2396 80.5834 87.9216 79.8896 88.5095C79.1958 89.0857 78.408 89.5913 77.5261 90.0264C78.4433 90.5085 79.3134 91.0729 80.1365 91.7197C80.9597 92.3546 81.6299 93.1013 82.1473 93.9597C82.6764 94.8181 82.941 95.8176 82.941 96.9582C82.941 98.3928 82.5588 99.6392 81.7945 100.697C81.0302 101.744 79.9719 102.555 78.6197 103.132C77.2674 103.708 75.6976 103.996 73.9103 103.996C71.9818 103.996 70.3415 103.719 68.9892 103.167C67.637 102.614 66.6081 101.826 65.9025 100.803C65.197 99.7686 64.8443 98.5339 64.8443 97.0993C64.8443 95.9234 65.0618 94.9004 65.4969 94.0303C65.9437 93.1601 66.5434 92.4134 67.296 91.7902C68.0485 91.1553 68.8775 90.6143 69.7829 90.1675C69.0186 89.6854 68.319 89.1386 67.684 88.5272C67.0608 87.9157 66.561 87.2161 66.1848 86.4282C65.8202 85.6404 65.638 84.735 65.638 83.7119C65.638 82.3479 66.0201 81.2073 66.7845 80.2901C67.5605 79.373 68.5777 78.6851 69.8359 78.2265C71.094 77.7561 72.4522 77.521 73.9103 77.521ZM69.8888 96.7818C69.8888 97.7108 70.218 98.481 70.8765 99.0924C71.5468 99.6921 72.5345 99.992 73.8397 99.992C75.192 99.992 76.2032 99.7039 76.8735 99.1277C77.5437 98.5398 77.8789 97.7696 77.8789 96.8171C77.8789 96.1586 77.6848 95.5824 77.2968 95.0886C76.9205 94.5947 76.4443 94.1537 75.8681 93.7657C75.2919 93.3659 74.7099 92.9955 74.1219 92.6545L73.6457 92.4076C72.8931 92.7486 72.2346 93.1307 71.6702 93.554C71.1176 93.9774 70.6825 94.4536 70.365 94.9827C70.0475 95.5119 69.8888 96.1116 69.8888 96.7818ZM73.875 81.5072C72.9813 81.5072 72.2405 81.7365 71.6526 82.1951C71.0646 82.6537 70.7707 83.3004 70.7707 84.1353C70.7707 84.7232 70.9118 85.2406 71.194 85.6874C71.488 86.1225 71.8701 86.5047 72.3405 86.8339C72.8226 87.1631 73.3458 87.4689 73.9103 87.7511C74.4512 87.4924 74.9568 87.2043 75.4272 86.8868C75.8975 86.5693 76.2797 86.1872 76.5736 85.7403C76.8676 85.2935 77.0146 84.7585 77.0146 84.1353C77.0146 83.3004 76.7147 82.6537 76.115 82.1951C75.5271 81.7365 74.7804 81.5072 73.875 81.5072ZM103.578 90.7496C103.578 92.8309 103.413 94.6888 103.084 96.3232C102.766 97.9577 102.249 99.3452 101.532 100.486C100.826 101.626 99.8972 102.497 98.7448 103.096C97.5924 103.696 96.1931 103.996 94.5469 103.996C92.4774 103.996 90.7782 103.473 89.4495 102.426C88.1207 101.368 87.1389 99.8509 86.5039 97.8754C85.8689 95.8882 85.5515 93.5129 85.5515 90.7496C85.5515 87.9627 85.8395 85.5816 86.4157 83.6061C87.0037 81.6189 87.9561 80.0961 89.2731 79.0378C90.5901 77.9795 92.348 77.4504 94.5469 77.4504C96.6047 77.4504 98.298 77.9795 99.6267 79.0378C100.967 80.0844 101.961 81.6012 102.608 83.5885C103.254 85.564 103.578 87.951 103.578 90.7496ZM90.9664 90.7496C90.9664 92.7133 91.0722 94.3536 91.2839 95.6706C91.5073 96.9758 91.8777 97.9577 92.3951 98.6162C92.9124 99.2747 93.6297 99.6039 94.5469 99.6039C95.4523 99.6039 96.1637 99.2806 96.6811 98.6338C97.2103 97.9753 97.5866 96.9935 97.81 95.6883C98.0334 94.3713 98.1451 92.725 98.1451 90.7496C98.1451 88.7859 98.0334 87.1455 97.81 85.8285C97.5866 84.5115 97.2103 83.5238 96.6811 82.8653C96.1637 82.1951 95.4523 81.8599 94.5469 81.8599C93.6297 81.8599 92.9124 82.1951 92.3951 82.8653C91.8777 83.5238 91.5073 84.5115 91.2839 85.8285C91.0722 87.1455 90.9664 88.7859 90.9664 90.7496Z" fill="black"/>
<g clip-path="url(#clip0_168_990)">
<path d="M426.686 125.782C442.118 125.782 454.629 108.364 454.629 86.8767C454.629 65.3898 442.118 47.9712 426.686 47.9712C411.253 47.9712 398.742 65.3898 398.742 86.8767C398.742 108.364 411.253 125.782 426.686 125.782Z" fill="#F0AA00"/>
<path d="M433.393 47.9712H427.242V125.774H433.393V47.9712Z" fill="#F0AA00"/>
<path d="M433.389 125.782C448.822 125.782 461.332 108.364 461.332 86.8767C461.332 65.3898 448.822 47.9712 433.389 47.9712C417.956 47.9712 405.445 65.3898 405.445 86.8767C405.445 108.364 417.956 125.782 433.389 125.782Z" fill="#FFCC00"/>
<path d="M456.775 72.9239C455.067 73.5121 453.237 73.6509 451.46 73.3268C446.254 72.1105 441.838 68.4151 438.84 63.5345C436.02 58.7742 434.23 53.4744 433.588 47.9785C444.976 48.087 454.745 57.6778 459.021 71.3668C458.359 72.0003 457.601 72.5257 456.775 72.9239Z" fill="#FCDC59"/>
<path d="M428.413 108.724C417.141 101.883 408.356 91.5562 406.055 78.7813C407.906 66.6418 413.802 56.5939 421.727 51.5273C422.966 59.3131 425.67 66.7192 430.504 73.0873C435.795 80.0596 443.535 85.1881 452.413 85.8079C455.441 86.0268 458.477 85.5167 461.268 84.3204C461.306 85.1649 461.337 86.0171 461.337 86.877C461.337 99.6131 456.937 110.893 450.143 118.012C442.527 115.872 435.222 112.75 428.413 108.724Z" fill="#FCDC59"/>
<path d="M434.906 125.72C434.403 125.759 433.899 125.782 433.396 125.782C424.835 125.782 417.181 120.421 412.053 111.985C418.86 117.794 426.582 122.435 434.906 125.72Z" fill="#FCDC59"/>
<path d="M412.779 86.1565C412.779 102.673 422.215 116.052 433.867 116.052C445.518 116.052 454.962 102.673 454.962 86.1565C454.962 69.6398 445.518 56.2607 433.867 56.2607C422.215 56.2607 412.779 69.6398 412.779 86.1565Z" fill="#DA8100"/>
<path d="M411.748 86.8769C411.748 102.991 420.89 116.052 432.177 116.052C443.464 116.052 452.606 102.991 452.606 86.8769C452.606 70.7631 443.457 57.7017 432.177 57.7017C420.897 57.7017 411.748 70.7631 411.748 86.8769Z" fill="#F0AA00"/>
<path d="M444.101 77.7122L437.168 75.4888C438.515 77.3476 439.32 79.5442 439.492 81.8336L444.07 83.2977V86.0402L439.538 84.5838C439.074 90.0067 435.665 92.5089 430.242 91.006C433.488 96.4909 437.013 103.223 440.499 109.994L436.463 108.7C433.225 102.503 430.196 96.7543 426.291 90.0144V86.6135L428.615 87.3882C433.147 88.8369 435.587 87.1558 435.928 83.4682L426.353 80.3694V77.6347L435.797 80.6638C435.239 77.2938 433.023 74.993 429.367 73.8232L426.384 72.8625V69.3066L444.063 74.9697L444.101 77.7122Z" fill="#EA9C00"/>
<path d="M443.511 76.8211L436.586 74.6055C437.932 76.4621 438.736 78.6558 438.91 80.9425L443.488 82.4144V85.1491L438.949 83.7005C438.484 89.1234 435.075 91.6179 429.652 90.115C432.89 95.5999 436.415 102.332 439.901 109.111L435.873 107.817C432.666 101.619 429.567 95.902 425.693 89.1234V85.7302L428.017 86.4661C432.557 87.9226 434.99 86.2415 435.331 82.5926L425.755 79.4938V76.7514L435.207 79.7805C434.641 76.4183 432.426 74.1174 428.777 72.9399L425.794 71.987V68.4233L443.481 74.0942L443.511 76.8211Z" fill="#FFCC00"/>
</g>
<defs>
<clipPath id="clip0_168_990">
<rect width="62.5881" height="77.8033" fill="white" transform="translate(398.742 47.9712)"/>
</clipPath>
</defs>
</svg>
