<svg width="495" height="171" viewBox="0 0 495 171" fill="none" xmlns="http://www.w3.org/2000/svg">
<rect x="0.154297" y="0.413574" width="494.564" height="169.92" rx="5.52585" fill="#B4AAF2"/>
<path d="M31.5598 43.543C31.5598 44.6538 31.3529 45.5824 30.9392 46.3289C30.5255 47.0709 29.9251 47.6307 29.1381 48.0085C28.3512 48.3817 27.4023 48.5684 26.2916 48.5684H23.5529V38.7065H26.5884C27.6092 38.7065 28.4906 38.8909 29.2326 39.2597C29.9746 39.6239 30.5479 40.1658 30.9527 40.8853C31.3574 41.6003 31.5598 42.4862 31.5598 43.543ZM29.8734 43.5902C29.8734 42.7808 29.7452 42.1152 29.4889 41.5936C29.2371 41.0719 28.8638 40.6852 28.3692 40.4334C27.879 40.177 27.2742 40.0489 26.5546 40.0489H25.1718V47.2125H26.3186C27.5103 47.2125 28.4006 46.909 28.9897 46.3019C29.5788 45.6948 29.8734 44.7909 29.8734 43.5902ZM39.7959 48.5684L38.8313 45.8297H35.0606L34.096 48.5684H32.3894L36.059 38.6661H37.8532L41.516 48.5684H39.7959ZM38.4131 44.4402L37.4755 41.742C37.4395 41.6251 37.3878 41.4609 37.3204 41.2496C37.2529 41.0337 37.1854 40.8156 37.118 40.5953C37.0505 40.3704 36.9943 40.1815 36.9494 40.0286C36.9044 40.213 36.8482 40.4199 36.7807 40.6492C36.7178 40.8741 36.6548 41.0854 36.5918 41.2833C36.5334 41.4812 36.4884 41.6341 36.4569 41.742L35.5126 44.4402H38.4131ZM42.8179 48.5684V38.7065H44.4368V48.5684H42.8179ZM47.0405 48.5684V38.7065H48.6594V47.1923H52.8483V48.5684H47.0405ZM57.3475 43.2057L59.6882 38.7065H61.4352L58.157 44.737V48.5684H56.5448V44.7977L53.2598 38.7065H55.0203L57.3475 43.2057ZM72.0121 45.8837C72.0121 46.4683 71.8682 46.9719 71.5804 47.3947C71.2971 47.8174 70.8878 48.1411 70.3527 48.366C69.8221 48.5908 69.188 48.7033 68.4505 48.7033C68.0907 48.7033 67.7467 48.683 67.4184 48.6426C67.0902 48.6021 66.7799 48.5436 66.4876 48.4672C66.1998 48.3862 65.9367 48.2895 65.6984 48.1771V46.6527C66.0986 46.828 66.546 46.9877 67.0407 47.1316C67.5354 47.271 68.039 47.3407 68.5517 47.3407C68.9699 47.3407 69.3162 47.2867 69.5905 47.1788C69.8693 47.0664 70.0761 46.909 70.2111 46.7066C70.346 46.4998 70.4134 46.2592 70.4134 45.9849C70.4134 45.6926 70.3347 45.4452 70.1773 45.2429C70.0199 45.0405 69.7816 44.8561 69.4623 44.6897C69.1475 44.5189 68.7518 44.3367 68.2751 44.1434C67.9513 44.0129 67.641 43.8645 67.3442 43.6982C67.0519 43.5318 66.7911 43.3362 66.5618 43.1113C66.3324 42.8865 66.1503 42.6211 66.0154 42.3153C65.885 42.0051 65.8198 41.6408 65.8198 41.2226C65.8198 40.665 65.9524 40.1883 66.2178 39.7926C66.4876 39.3968 66.8653 39.0933 67.351 38.8819C67.8412 38.6706 68.4123 38.5649 69.0643 38.5649C69.5815 38.5649 70.0671 38.6189 70.5213 38.7268C70.98 38.8347 71.4297 38.9876 71.8704 39.1855L71.3578 40.4873C70.953 40.321 70.5596 40.1883 70.1773 40.0894C69.7996 39.9904 69.4128 39.941 69.0171 39.941C68.6753 39.941 68.3853 39.9927 68.147 40.0961C67.9086 40.1995 67.7265 40.3457 67.6006 40.5346C67.4792 40.7189 67.4184 40.9393 67.4184 41.1956C67.4184 41.4834 67.4881 41.7262 67.6276 41.9241C67.7715 42.1175 67.9918 42.2951 68.2886 42.457C68.5899 42.6189 68.9766 42.7988 69.4488 42.9966C69.9929 43.2215 70.4539 43.4576 70.8316 43.7049C71.2139 43.9522 71.5062 44.249 71.7085 44.5953C71.9109 44.9371 72.0121 45.3665 72.0121 45.8837ZM80.0256 48.5684L79.061 45.8297H75.2904L74.3258 48.5684H72.6192L76.2887 38.6661H78.083L81.7457 48.5684H80.0256ZM78.6428 44.4402L77.7052 41.742C77.6692 41.6251 77.6175 41.4609 77.5501 41.2496C77.4826 41.0337 77.4152 40.8156 77.3477 40.5953C77.2803 40.3704 77.224 40.1815 77.1791 40.0286C77.1341 40.213 77.0779 40.4199 77.0104 40.6492C76.9475 40.8741 76.8845 41.0854 76.8216 41.2833C76.7631 41.4812 76.7181 41.6341 76.6867 41.742L75.7423 44.4402H78.6428ZM90.3596 38.7065L86.9127 48.5684H85.1994L81.7525 38.7065H83.4119L85.4894 44.8854C85.5524 45.0652 85.6199 45.2833 85.6918 45.5397C85.7683 45.796 85.838 46.0546 85.9009 46.3154C85.9684 46.5762 86.0201 46.8078 86.0561 47.0102C86.092 46.8078 86.1415 46.5762 86.2045 46.3154C86.2719 46.0546 86.3416 45.796 86.4136 45.5397C86.4855 45.2833 86.553 45.063 86.6159 44.8786L88.7003 38.7065H90.3596ZM91.6548 48.5684V38.7065H93.2737V48.5684H91.6548ZM104.107 48.5684H102.117L97.2872 40.6964H97.2265C97.2445 40.9618 97.2602 41.2428 97.2737 41.5396C97.2917 41.8364 97.3052 42.1422 97.3142 42.457C97.3277 42.7718 97.3389 43.0911 97.3479 43.4149V48.5684H95.8774V38.7065H97.8538L102.677 46.5245H102.724C102.715 46.2952 102.704 46.0321 102.69 45.7353C102.677 45.4385 102.663 45.1327 102.65 44.8179C102.641 44.4986 102.634 44.1906 102.63 43.8938V38.7065H104.107V48.5684ZM110.677 43.2125H114.36V48.1636C113.843 48.3345 113.308 48.4672 112.754 48.5616C112.201 48.656 111.581 48.7033 110.893 48.7033C109.89 48.7033 109.04 48.5054 108.343 48.1097C107.65 47.7094 107.124 47.1316 106.765 46.3761C106.405 45.6161 106.225 44.701 106.225 43.6307C106.225 42.6009 106.425 41.7083 106.825 40.9528C107.225 40.1928 107.808 39.6059 108.572 39.1922C109.337 38.774 110.263 38.5649 111.351 38.5649C111.887 38.5649 112.404 38.6189 112.903 38.7268C113.407 38.8302 113.867 38.9741 114.286 39.1585L113.719 40.4941C113.386 40.3367 113.013 40.204 112.599 40.0961C112.186 39.9882 111.756 39.9342 111.311 39.9342C110.605 39.9342 109.996 40.0871 109.483 40.3929C108.975 40.6987 108.584 41.1304 108.309 41.688C108.035 42.2411 107.898 42.8955 107.898 43.6509C107.898 44.3839 108.008 45.027 108.228 45.5801C108.449 46.1333 108.793 46.565 109.26 46.8753C109.733 47.1811 110.342 47.3339 111.088 47.3339C111.462 47.3339 111.779 47.3137 112.039 47.2732C112.3 47.2328 112.541 47.1878 112.761 47.1383V44.5953H110.677V43.2125ZM122.414 45.8837C122.414 46.4683 122.27 46.9719 121.982 47.3947C121.699 47.8174 121.29 48.1411 120.755 48.366C120.224 48.5908 119.59 48.7033 118.852 48.7033C118.493 48.7033 118.149 48.683 117.82 48.6426C117.492 48.6021 117.182 48.5436 116.889 48.4672C116.602 48.3862 116.339 48.2895 116.1 48.1771V46.6527C116.5 46.828 116.948 46.9877 117.443 47.1316C117.937 47.271 118.441 47.3407 118.954 47.3407C119.372 47.3407 119.718 47.2867 119.992 47.1788C120.271 47.0664 120.478 46.909 120.613 46.7066C120.748 46.4998 120.815 46.2592 120.815 45.9849C120.815 45.6926 120.737 45.4452 120.579 45.2429C120.422 45.0405 120.183 44.8561 119.864 44.6897C119.549 44.5189 119.154 44.3367 118.677 44.1434C118.353 44.0129 118.043 43.8645 117.746 43.6982C117.454 43.5318 117.193 43.3362 116.964 43.1113C116.734 42.8865 116.552 42.6211 116.417 42.3153C116.287 42.0051 116.222 41.6408 116.222 41.2226C116.222 40.665 116.354 40.1883 116.62 39.7926C116.889 39.3968 117.267 39.0933 117.753 38.8819C118.243 38.6706 118.814 38.5649 119.466 38.5649C119.983 38.5649 120.469 38.6189 120.923 38.7268C121.382 38.8347 121.832 38.9876 122.272 39.1855L121.76 40.4873C121.355 40.321 120.961 40.1883 120.579 40.0894C120.201 39.9904 119.815 39.941 119.419 39.941C119.077 39.941 118.787 39.9927 118.549 40.0961C118.31 40.1995 118.128 40.3457 118.002 40.5346C117.881 40.7189 117.82 40.9393 117.82 41.1956C117.82 41.4834 117.89 41.7262 118.029 41.9241C118.173 42.1175 118.394 42.2951 118.69 42.457C118.992 42.6189 119.378 42.7988 119.851 42.9966C120.395 43.2215 120.856 43.4576 121.233 43.7049C121.616 43.9522 121.908 44.249 122.11 44.5953C122.313 44.9371 122.414 45.3665 122.414 45.8837Z" fill="black" fill-opacity="0.76"/>
<path d="M30.4656 138.601H23.8767V126.766H30.4656V127.981H25.2528V131.809H30.1662V133.007H25.2528V137.386H30.4656V138.601ZM36.2047 129.583C37.2623 129.583 38.0475 129.821 38.5602 130.296C39.0728 130.77 39.3291 131.529 39.3291 132.57V138.601H38.3497L38.0907 137.289H38.0259C37.7777 137.613 37.5187 137.886 37.2488 138.107C36.979 138.323 36.666 138.487 36.3099 138.601C35.9591 138.709 35.5274 138.762 35.0148 138.762C34.4751 138.762 33.9949 138.668 33.5739 138.479C33.1584 138.29 32.8292 138.004 32.5864 137.621C32.349 137.238 32.2303 136.752 32.2303 136.164C32.2303 135.279 32.581 134.599 33.2825 134.124C33.9841 133.649 35.0525 133.39 36.488 133.347L38.0178 133.282V132.74C38.0178 131.974 37.8532 131.437 37.5241 131.129C37.1949 130.822 36.7308 130.668 36.1318 130.668C35.6677 130.668 35.2252 130.735 34.8043 130.87C34.3834 131.005 33.9841 131.164 33.6063 131.348L33.1935 130.328C33.5928 130.123 34.0515 129.948 34.5696 129.802C35.0876 129.656 35.6326 129.583 36.2047 129.583ZM38.0016 134.23L36.6499 134.286C35.5436 134.329 34.7638 134.51 34.3105 134.829C33.8572 135.147 33.6306 135.598 33.6306 136.18C33.6306 136.688 33.7844 137.063 34.092 137.305C34.3996 137.548 34.807 137.67 35.3143 137.67C36.1021 137.67 36.747 137.451 37.2488 137.014C37.7507 136.577 38.0016 135.921 38.0016 135.047V134.23ZM46.1285 129.567C46.3066 129.567 46.4928 129.578 46.687 129.599C46.8813 129.616 47.054 129.64 47.2051 129.672L47.0351 130.919C46.8894 130.881 46.7275 130.851 46.5494 130.83C46.3714 130.808 46.2041 130.797 46.0476 130.797C45.6914 130.797 45.3542 130.87 45.0358 131.016C44.7228 131.156 44.4476 131.361 44.2101 131.631C43.9727 131.896 43.7865 132.217 43.6516 132.594C43.5167 132.967 43.4492 133.382 43.4492 133.841V138.601H42.0975V129.729H43.2145L43.3602 131.364H43.4169C43.6003 131.035 43.8216 130.735 44.0806 130.466C44.3396 130.19 44.6391 129.972 44.9791 129.81C45.3245 129.648 45.7076 129.567 46.1285 129.567ZM53.0817 129.567C54.134 129.567 54.93 129.826 55.4696 130.344C56.0092 130.857 56.279 131.682 56.279 132.821V138.601H54.9515V132.91C54.9515 132.171 54.7816 131.618 54.4416 131.251C54.107 130.884 53.5917 130.7 52.8955 130.7C51.9134 130.7 51.2227 130.978 50.8233 131.534C50.424 132.09 50.2244 132.897 50.2244 133.954V138.601H48.8807V129.729H49.9653L50.1677 131.008H50.2405C50.4294 130.695 50.6695 130.433 50.961 130.223C51.2524 130.007 51.5788 129.845 51.9404 129.737C52.3019 129.624 52.6824 129.567 53.0817 129.567ZM62.4633 129.567C63.2187 129.567 63.8663 129.734 64.4059 130.069C64.9456 130.404 65.3584 130.873 65.6444 131.477C65.9304 132.076 66.0734 132.778 66.0734 133.582V134.416H59.9459C59.962 135.457 60.2211 136.25 60.7229 136.796C61.2248 137.341 61.9317 137.613 62.8437 137.613C63.4049 137.613 63.9014 137.562 64.3331 137.459C64.7648 137.357 65.2127 137.206 65.6768 137.006V138.188C65.2289 138.387 64.7837 138.533 64.3412 138.625C63.9041 138.717 63.386 138.762 62.787 138.762C61.9344 138.762 61.1897 138.59 60.5529 138.244C59.9216 137.894 59.4305 137.381 59.0797 136.706C58.729 136.032 58.5536 135.206 58.5536 134.23C58.5536 133.274 58.7128 132.449 59.0312 131.753C59.355 131.051 59.8083 130.511 60.3911 130.134C60.9793 129.756 61.67 129.567 62.4633 129.567ZM62.4471 130.668C61.7294 130.668 61.1573 130.903 60.731 131.372C60.3047 131.842 60.0511 132.497 59.9701 133.339H64.665C64.6596 132.81 64.5759 132.346 64.414 131.947C64.2575 131.542 64.0174 131.229 63.6936 131.008C63.3698 130.781 62.9543 130.668 62.4471 130.668ZM71.5129 138.762C70.3905 138.762 69.5001 138.379 68.8417 137.613C68.1888 136.847 67.8623 135.708 67.8623 134.197C67.8623 132.67 68.1969 131.518 68.866 130.741C69.5352 129.958 70.4256 129.567 71.5372 129.567C72.0067 129.567 72.4168 129.629 72.7676 129.753C73.1183 129.877 73.4205 130.045 73.6742 130.255C73.9278 130.46 74.1409 130.695 74.3136 130.959H74.4108C74.3892 130.792 74.3676 130.563 74.346 130.271C74.3244 129.98 74.3136 129.742 74.3136 129.559V126.006H75.6573V138.601H74.5726L74.3703 137.338H74.3136C74.1463 137.602 73.9332 137.842 73.6742 138.058C73.4205 138.274 73.1156 138.447 72.7595 138.576C72.4087 138.7 71.9932 138.762 71.5129 138.762ZM71.7234 137.645C72.6731 137.645 73.345 137.376 73.7389 136.836C74.1328 136.296 74.3298 135.495 74.3298 134.432V134.189C74.3298 133.061 74.1409 132.195 73.7632 131.591C73.3908 130.986 72.7109 130.684 71.7234 130.684C70.8977 130.684 70.2799 131.003 69.8697 131.639C69.4596 132.271 69.2545 133.134 69.2545 134.23C69.2545 135.32 69.4569 136.161 69.8616 136.755C70.2718 137.349 70.8923 137.645 71.7234 137.645ZM81.4125 129.729H82.8533L84.8122 134.877C84.9255 135.179 85.0308 135.471 85.1279 135.751C85.225 136.027 85.3114 136.291 85.3869 136.545C85.4625 136.798 85.5218 137.044 85.565 137.281H85.6217C85.6972 137.011 85.8051 136.658 85.9454 136.221C86.0857 135.778 86.2368 135.328 86.3987 134.869L88.2524 129.729H89.7013L85.8402 139.904C85.6351 140.449 85.395 140.924 85.1198 141.328C84.85 141.733 84.5208 142.043 84.1323 142.259C83.7437 142.481 83.2742 142.591 82.7238 142.591C82.4702 142.591 82.2462 142.575 82.052 142.543C81.8577 142.516 81.6904 142.483 81.5501 142.445V141.369C81.6688 141.396 81.8118 141.42 81.9791 141.442C82.1518 141.463 82.3299 141.474 82.5134 141.474C82.8479 141.474 83.1366 141.409 83.3795 141.28C83.6277 141.156 83.8409 140.972 84.0189 140.729C84.197 140.487 84.3508 140.198 84.4803 139.863L84.966 138.617L81.4125 129.729ZM94.5337 129.567C95.2892 129.567 95.9368 129.734 96.4764 130.069C97.016 130.404 97.4288 130.873 97.7149 131.477C98.0009 132.076 98.1439 132.778 98.1439 133.582V134.416H92.0163C92.0325 135.457 92.2915 136.25 92.7934 136.796C93.2952 137.341 94.0022 137.613 94.9142 137.613C95.4754 137.613 95.9718 137.562 96.4035 137.459C96.8352 137.357 97.2831 137.206 97.7472 137.006V138.188C97.2993 138.387 96.8541 138.533 96.4116 138.625C95.9745 138.717 95.4565 138.762 94.8575 138.762C94.0049 138.762 93.2602 138.59 92.6234 138.244C91.992 137.894 91.501 137.381 91.1502 136.706C90.7994 136.032 90.6241 135.206 90.6241 134.23C90.6241 133.274 90.7833 132.449 91.1016 131.753C91.4254 131.051 91.8787 130.511 92.4615 130.134C93.0497 129.756 93.7404 129.567 94.5337 129.567ZM94.5175 130.668C93.7998 130.668 93.2278 130.903 92.8015 131.372C92.3752 131.842 92.1215 132.497 92.0406 133.339H96.7354C96.73 132.81 96.6464 132.346 96.4845 131.947C96.328 131.542 96.0879 131.229 95.7641 131.008C95.4403 130.781 95.0248 130.668 94.5175 130.668ZM106.166 136.172C106.166 136.739 106.023 137.216 105.737 137.605C105.456 137.988 105.051 138.277 104.522 138.471C103.999 138.665 103.373 138.762 102.644 138.762C102.024 138.762 101.487 138.714 101.034 138.617C100.58 138.52 100.184 138.382 99.8437 138.204V136.965C100.205 137.144 100.637 137.305 101.139 137.451C101.641 137.597 102.153 137.67 102.677 137.67C103.443 137.67 103.999 137.546 104.344 137.297C104.69 137.049 104.862 136.712 104.862 136.286C104.862 136.043 104.792 135.83 104.652 135.646C104.517 135.457 104.288 135.276 103.964 135.104C103.64 134.926 103.192 134.731 102.62 134.521C102.054 134.305 101.562 134.092 101.147 133.881C100.737 133.666 100.418 133.404 100.192 133.096C99.9705 132.789 99.8599 132.389 99.8599 131.898C99.8599 131.148 100.162 130.574 100.766 130.174C101.376 129.769 102.175 129.567 103.162 129.567C103.697 129.567 104.196 129.621 104.66 129.729C105.129 129.832 105.567 129.972 105.971 130.15L105.518 131.226C105.151 131.07 104.76 130.938 104.344 130.83C103.929 130.722 103.505 130.668 103.073 130.668C102.453 130.668 101.975 130.77 101.641 130.976C101.312 131.181 101.147 131.461 101.147 131.817C101.147 132.093 101.222 132.319 101.374 132.497C101.53 132.675 101.778 132.843 102.118 132.999C102.458 133.156 102.906 133.339 103.462 133.55C104.018 133.755 104.498 133.968 104.903 134.189C105.308 134.405 105.618 134.669 105.834 134.982C106.055 135.29 106.166 135.687 106.166 136.172ZM111.192 137.662C111.413 137.662 111.64 137.643 111.872 137.605C112.104 137.567 112.293 137.521 112.439 137.467V138.512C112.282 138.582 112.064 138.641 111.783 138.69C111.508 138.738 111.238 138.762 110.974 138.762C110.504 138.762 110.078 138.682 109.695 138.52C109.312 138.352 109.004 138.072 108.772 137.678C108.545 137.284 108.432 136.739 108.432 136.043V130.781H107.169V130.126L108.44 129.599L108.974 127.673H109.784V129.729H112.382V130.781H109.784V136.002C109.784 136.558 109.911 136.974 110.164 137.249C110.423 137.524 110.766 137.662 111.192 137.662ZM117.652 129.567C118.407 129.567 119.055 129.734 119.594 130.069C120.134 130.404 120.547 130.873 120.833 131.477C121.119 132.076 121.262 132.778 121.262 133.582V134.416H115.134C115.15 135.457 115.409 136.25 115.911 136.796C116.413 137.341 117.12 137.613 118.032 137.613C118.593 137.613 119.09 137.562 119.521 137.459C119.953 137.357 120.401 137.206 120.865 137.006V138.188C120.417 138.387 119.972 138.533 119.53 138.625C119.092 138.717 118.574 138.762 117.975 138.762C117.123 138.762 116.378 138.59 115.741 138.244C115.11 137.894 114.619 137.381 114.268 136.706C113.917 136.032 113.742 135.206 113.742 134.23C113.742 133.274 113.901 132.449 114.22 131.753C114.543 131.051 114.997 130.511 115.579 130.134C116.168 129.756 116.858 129.567 117.652 129.567ZM117.635 130.668C116.918 130.668 116.346 130.903 115.919 131.372C115.493 131.842 115.239 132.497 115.159 133.339H119.853C119.848 132.81 119.764 132.346 119.602 131.947C119.446 131.542 119.206 131.229 118.882 131.008C118.558 130.781 118.143 130.668 117.635 130.668ZM127.576 129.567C127.754 129.567 127.94 129.578 128.134 129.599C128.328 129.616 128.501 129.64 128.652 129.672L128.482 130.919C128.336 130.881 128.174 130.851 127.996 130.83C127.818 130.808 127.651 130.797 127.495 130.797C127.138 130.797 126.801 130.87 126.483 131.016C126.17 131.156 125.895 131.361 125.657 131.631C125.42 131.896 125.233 132.217 125.099 132.594C124.964 132.967 124.896 133.382 124.896 133.841V138.601H123.544V129.729H124.661L124.807 131.364H124.864C125.047 131.035 125.269 130.735 125.528 130.466C125.787 130.19 126.086 129.972 126.426 129.81C126.771 129.648 127.155 129.567 127.576 129.567ZM133.485 138.762C132.362 138.762 131.472 138.379 130.813 137.613C130.16 136.847 129.834 135.708 129.834 134.197C129.834 132.67 130.168 131.518 130.838 130.741C131.507 129.958 132.397 129.567 133.509 129.567C133.978 129.567 134.388 129.629 134.739 129.753C135.09 129.877 135.392 130.045 135.646 130.255C135.899 130.46 136.113 130.695 136.285 130.959H136.382C136.361 130.792 136.339 130.563 136.318 130.271C136.296 129.98 136.285 129.742 136.285 129.559V126.006H137.629V138.601H136.544L136.342 137.338H136.285C136.118 137.602 135.905 137.842 135.646 138.058C135.392 138.274 135.087 138.447 134.731 138.576C134.38 138.7 133.965 138.762 133.485 138.762ZM133.695 137.645C134.645 137.645 135.317 137.376 135.71 136.836C136.104 136.296 136.301 135.495 136.301 134.432V134.189C136.301 133.061 136.113 132.195 135.735 131.591C135.362 130.986 134.682 130.684 133.695 130.684C132.869 130.684 132.251 131.003 131.841 131.639C131.431 132.271 131.226 133.134 131.226 134.23C131.226 135.32 131.428 136.161 131.833 136.755C132.243 137.349 132.864 137.645 133.695 137.645ZM143.797 129.583C144.855 129.583 145.64 129.821 146.152 130.296C146.665 130.77 146.921 131.529 146.921 132.57V138.601H145.942L145.683 137.289H145.618C145.37 137.613 145.111 137.886 144.841 138.107C144.571 138.323 144.258 138.487 143.902 138.601C143.551 138.709 143.12 138.762 142.607 138.762C142.067 138.762 141.587 138.668 141.166 138.479C140.751 138.29 140.422 138.004 140.179 137.621C139.941 137.238 139.823 136.752 139.823 136.164C139.823 135.279 140.173 134.599 140.875 134.124C141.576 133.649 142.645 133.39 144.08 133.347L145.61 133.282V132.74C145.61 131.974 145.445 131.437 145.116 131.129C144.787 130.822 144.323 130.668 143.724 130.668C143.26 130.668 142.817 130.735 142.397 130.87C141.976 131.005 141.576 131.164 141.199 131.348L140.786 130.328C141.185 130.123 141.644 129.948 142.162 129.802C142.68 129.656 143.225 129.583 143.797 129.583ZM145.594 134.23L144.242 134.286C143.136 134.329 142.356 134.51 141.903 134.829C141.45 135.147 141.223 135.598 141.223 136.18C141.223 136.688 141.377 137.063 141.684 137.305C141.992 137.548 142.399 137.67 142.907 137.67C143.694 137.67 144.339 137.451 144.841 137.014C145.343 136.577 145.594 135.921 145.594 135.047V134.23ZM148.289 129.729H149.73L151.689 134.877C151.802 135.179 151.908 135.471 152.005 135.751C152.102 136.027 152.188 136.291 152.264 136.545C152.339 136.798 152.399 137.044 152.442 137.281H152.499C152.574 137.011 152.682 136.658 152.822 136.221C152.963 135.778 153.114 135.328 153.276 134.869L155.129 129.729H156.578L152.717 139.904C152.512 140.449 152.272 140.924 151.997 141.328C151.727 141.733 151.398 142.043 151.009 142.259C150.621 142.481 150.151 142.591 149.601 142.591C149.347 142.591 149.123 142.575 148.929 142.543C148.735 142.516 148.567 142.483 148.427 142.445V141.369C148.546 141.396 148.689 141.42 148.856 141.442C149.029 141.463 149.207 141.474 149.39 141.474C149.725 141.474 150.013 141.409 150.256 141.28C150.505 141.156 150.718 140.972 150.896 140.729C151.074 140.487 151.228 140.198 151.357 139.863L151.843 138.617L148.289 129.729Z" fill="black" fill-opacity="0.76"/>
<path d="M31.0577 101.961L24.5925 90.6827V88.0247H26.7476C27.6096 88.0247 28.3639 87.905 29.0104 87.6656C29.6809 87.4022 30.2316 87.031 30.6626 86.5521C31.1176 86.0732 31.4289 85.4985 31.5965 84.828H24.5925V82.1701H31.5606C31.4169 81.5475 31.1655 80.9968 30.8063 80.5179C30.4711 80.039 30.0161 79.6678 29.4414 79.4044C28.8907 79.1171 28.2202 78.9734 27.43 78.9734H24.5925V76.3155H40.7915V78.9734H35.1524C35.5595 79.4283 35.8947 79.9192 36.1581 80.446C36.4454 80.9728 36.637 81.5475 36.7328 82.1701H40.7915V84.828H36.8046C36.5652 86.6 35.8827 87.9888 34.7573 88.9945C33.6319 89.9763 32.1832 90.6468 30.4112 91.0059L37.4511 101.961H31.0577ZM57.6497 101.961H52.2304V87.1237C52.2304 86.7145 52.2363 86.2117 52.248 85.6154C52.2597 85.0074 52.2772 84.3878 52.3006 83.7564C52.324 83.1133 52.3474 82.5346 52.3707 82.0201C52.2421 82.1721 51.9791 82.4352 51.5815 82.8093C51.1957 83.1718 50.8332 83.4992 50.4942 83.7915L47.5478 86.1591L44.9346 82.897L53.195 76.3202H57.6497V101.961ZM71.1541 97.7869L71.4171 98.1902C71.2067 99.0321 70.9319 99.9382 70.5928 100.909C70.2655 101.879 69.903 102.85 69.5055 103.82C69.1196 104.79 68.728 105.714 68.3304 106.591H64.472C64.7059 105.644 64.9339 104.65 65.156 103.61C65.3782 102.569 65.5828 101.546 65.7699 100.54C65.9686 99.5348 66.1265 98.617 66.2434 97.7869H71.1541ZM74.8721 91.0698C74.8721 89.5966 74.9774 88.1409 75.1878 86.7028C75.41 85.253 75.79 83.8908 76.3278 82.6164C76.8656 81.3303 77.6198 80.1961 78.5902 79.214C79.5607 78.2202 80.7942 77.4427 82.2908 76.8814C83.7873 76.3085 85.5996 76.0221 87.7276 76.0221C88.2303 76.0221 88.8149 76.0455 89.4814 76.0922C90.1595 76.1273 90.7207 76.1916 91.165 76.2851V80.6171C90.6974 80.5118 90.1946 80.43 89.6568 80.3715C89.1306 80.3014 88.6045 80.2663 88.0783 80.2663C85.9504 80.2663 84.3018 80.6054 83.1326 81.2835C81.9751 81.9616 81.1566 82.9029 80.6773 84.1071C80.2096 85.2997 79.9348 86.6911 79.853 88.2812H80.081C80.4083 87.7083 80.8176 87.1997 81.3086 86.7554C81.8114 86.3111 82.4194 85.9603 83.1326 85.7031C83.8458 85.4342 84.6818 85.2997 85.6405 85.2997C87.1371 85.2997 88.4349 85.6213 89.534 86.2643C90.6331 86.8957 91.4807 87.8135 92.077 89.0178C92.6733 90.2221 92.9715 91.6895 92.9715 93.4199C92.9715 95.2672 92.6149 96.8573 91.9016 98.1902C91.1884 99.5231 90.1771 100.546 88.8675 101.259C87.5697 101.961 86.0264 102.312 84.2375 102.312C82.928 102.312 81.7062 102.09 80.572 101.645C79.4379 101.189 78.4441 100.499 77.5905 99.5758C76.737 98.6521 76.0706 97.4887 75.5912 96.0857C75.1118 94.6709 74.8721 92.999 74.8721 91.0698ZM84.1323 97.9798C85.1962 97.9798 86.0615 97.6173 86.7279 96.8924C87.3943 96.1675 87.7276 95.0334 87.7276 93.49C87.7276 92.239 87.4353 91.2568 86.8507 90.5436C86.2778 89.8187 85.4067 89.4563 84.2375 89.4563C83.4424 89.4563 82.7409 89.6375 82.1329 89.9999C81.5366 90.3507 81.0748 90.8009 80.7474 91.3504C80.42 91.8882 80.2563 92.4436 80.2563 93.0165C80.2563 93.6128 80.3382 94.2032 80.5019 94.7879C80.6656 95.3725 80.9111 95.9044 81.2385 96.3838C81.5658 96.8632 81.9692 97.249 82.4486 97.5413C82.9397 97.8336 83.5009 97.9798 84.1323 97.9798ZM113.386 89.1406C113.386 91.2101 113.222 93.0574 112.895 94.6826C112.579 96.3078 112.065 97.6875 111.351 98.8216C110.65 99.9557 109.726 100.821 108.58 101.417C107.435 102.014 106.043 102.312 104.406 102.312C102.349 102.312 100.659 101.791 99.3378 100.751C98.0166 99.6985 97.0403 98.1902 96.4089 96.226C95.7776 94.25 95.4619 91.8882 95.4619 89.1406C95.4619 86.3696 95.7483 84.0019 96.3212 82.0376C96.9058 80.0617 97.8529 78.5476 99.1624 77.4953C100.472 76.443 102.22 75.9168 104.406 75.9168C106.452 75.9168 108.136 76.443 109.457 77.4953C110.79 78.5359 111.778 80.0441 112.421 82.0201C113.064 83.9844 113.386 86.3579 113.386 89.1406ZM100.846 89.1406C100.846 91.0932 100.951 92.7242 101.162 94.0337C101.384 95.3315 101.752 96.3078 102.267 96.9626C102.781 97.6173 103.494 97.9447 104.406 97.9447C105.307 97.9447 106.014 97.6232 106.528 96.9801C107.055 96.3254 107.429 95.3491 107.651 94.0513C107.873 92.7417 107.984 91.1048 107.984 89.1406C107.984 87.188 107.873 85.557 107.651 84.2474C107.429 82.9379 107.055 81.9558 106.528 81.301C106.014 80.6346 105.307 80.3014 104.406 80.3014C103.494 80.3014 102.781 80.6346 102.267 81.301C101.752 81.9558 101.384 82.9379 101.162 84.2474C100.951 85.557 100.846 87.188 100.846 89.1406ZM133.94 89.1406C133.94 91.2101 133.777 93.0574 133.449 94.6826C133.134 96.3078 132.619 97.6875 131.906 98.8216C131.205 99.9557 130.281 100.821 129.135 101.417C127.989 102.014 126.598 102.312 124.961 102.312C122.903 102.312 121.214 101.791 119.892 100.751C118.571 99.6985 117.595 98.1902 116.964 96.226C116.332 94.25 116.017 91.8882 116.017 89.1406C116.017 86.3696 116.303 84.0019 116.876 82.0376C117.461 80.0617 118.408 78.5476 119.717 77.4953C121.027 76.443 122.775 75.9168 124.961 75.9168C127.007 75.9168 128.691 76.443 130.012 77.4953C131.345 78.5359 132.333 80.0441 132.976 82.0201C133.619 83.9844 133.94 86.3579 133.94 89.1406ZM121.401 89.1406C121.401 91.0932 121.506 92.7242 121.716 94.0337C121.939 95.3315 122.307 96.3078 122.821 96.9626C123.336 97.6173 124.049 97.9447 124.961 97.9447C125.861 97.9447 126.569 97.6232 127.083 96.9801C127.609 96.3254 127.983 95.3491 128.206 94.0513C128.428 92.7417 128.539 91.1048 128.539 89.1406C128.539 87.188 128.428 85.557 128.206 84.2474C127.983 82.9379 127.609 81.9558 127.083 81.301C126.569 80.6346 125.861 80.3014 124.961 80.3014C124.049 80.3014 123.336 80.6346 122.821 81.301C122.307 81.9558 121.939 82.9379 121.716 84.2474C121.506 85.557 121.401 87.188 121.401 89.1406Z" fill="black"/>
<g clip-path="url(#clip0_168_968)">
<path d="M424.418 124.753C439.763 124.753 452.203 107.433 452.203 86.0681C452.203 64.7031 439.763 47.3833 424.418 47.3833C409.073 47.3833 396.633 64.7031 396.633 86.0681C396.633 107.433 409.073 124.753 424.418 124.753Z" fill="#F0AA00"/>
<path d="M431.087 47.3833H424.971V124.745H431.087V47.3833Z" fill="#F0AA00"/>
<path d="M431.08 124.753C446.425 124.753 458.865 107.433 458.865 86.0681C458.865 64.7031 446.425 47.3833 431.08 47.3833C415.735 47.3833 403.295 64.7031 403.295 86.0681C403.295 107.433 415.735 124.753 431.08 124.753Z" fill="#FFCC00"/>
<path d="M454.333 72.1945C452.635 72.7794 450.815 72.9173 449.048 72.5951C443.872 71.3857 439.481 67.7113 436.5 62.8584C433.695 58.1251 431.916 52.8554 431.277 47.3906C442.601 47.4985 452.314 57.0349 456.567 70.6462C455.908 71.2761 455.154 71.7986 454.333 72.1945Z" fill="#FCDC59"/>
<path d="M426.133 107.791C414.925 100.989 406.19 90.7212 403.902 78.0188C405.743 65.9481 411.605 55.9572 419.486 50.9194C420.718 58.661 423.407 66.0252 428.213 72.3571C433.474 79.2898 441.17 84.3893 449.998 85.0055C453.008 85.2232 456.028 84.716 458.802 83.5265C458.841 84.3662 458.871 85.2135 458.871 86.0686C458.871 98.7324 454.496 109.948 447.741 117.027C440.168 114.9 432.904 111.795 426.133 107.791Z" fill="#FCDC59"/>
<path d="M432.589 124.691C432.089 124.73 431.588 124.753 431.087 124.753C422.575 124.753 414.965 119.422 409.865 111.034C416.634 116.81 424.313 121.425 432.589 124.691Z" fill="#FCDC59"/>
<path d="M410.588 85.3516C410.588 101.775 419.97 115.078 431.556 115.078C443.141 115.078 452.531 101.775 452.531 85.3516C452.531 68.9287 443.141 55.6255 431.556 55.6255C419.97 55.6255 410.588 68.9287 410.588 85.3516Z" fill="#DA8100"/>
<path d="M409.564 86.0679C409.564 102.09 418.654 115.078 429.877 115.078C441.101 115.078 450.19 102.09 450.19 86.0679C450.19 70.0455 441.093 57.0581 429.877 57.0581C418.662 57.0581 409.564 70.0455 409.564 86.0679Z" fill="#F0AA00"/>
<path d="M441.733 76.9555L434.839 74.7447C436.178 76.593 436.978 78.7772 437.149 81.0535L441.702 82.5094V85.2363L437.196 83.7881C436.734 89.1803 433.344 91.6683 427.952 90.174C431.18 95.6277 434.684 102.322 438.151 109.054L434.138 107.768C430.918 101.605 427.906 95.8896 424.023 89.188V85.8063L426.334 86.5766C430.841 88.0171 433.267 86.3455 433.606 82.6789L424.085 79.5976V76.8785L433.475 79.8904C432.92 76.5395 430.717 74.2517 427.082 73.0885L424.116 72.1334V68.5977L441.694 74.2286L441.733 76.9555Z" fill="#EA9C00"/>
<path d="M441.147 76.0694L434.26 73.8663C435.599 75.7124 436.399 77.8937 436.571 80.1674L441.124 81.631V84.3502L436.61 82.9097C436.147 88.3018 432.758 90.7822 427.366 89.2878C430.586 94.7416 434.091 101.436 437.557 108.176L433.552 106.889C430.362 100.727 427.281 95.042 423.43 88.3018V84.9279L425.741 85.6597C430.255 87.1079 432.673 85.4363 433.012 81.8082L423.491 78.7269V76L432.889 79.0119C432.327 75.6688 430.124 73.381 426.496 72.2101L423.53 71.2627V67.7192L441.116 73.3579L441.147 76.0694Z" fill="#FFCC00"/>
</g>
<defs>
<clipPath id="clip0_168_968">
<rect width="62.2331" height="77.3619" fill="white" transform="translate(396.633 47.3833)"/>
</clipPath>
</defs>
</svg>
