<svg width="374" height="269" viewBox="0 0 374 269" fill="none" xmlns="http://www.w3.org/2000/svg">
<g opacity="0.26">
<line x1="14.4701" y1="8.63419" x2="372.587" y2="8.63419" stroke="#DEE3ED" stroke-opacity="0.7" stroke-width="0.826836" stroke-linecap="round" stroke-dasharray="0.83 2.48"/>
<line x1="14.4701" y1="43.1921" x2="372.587" y2="43.1921" stroke="#DEE3ED" stroke-opacity="0.7" stroke-width="0.826836" stroke-linecap="round" stroke-dasharray="0.83 2.48"/>
<line x1="14.4701" y1="77.7492" x2="372.587" y2="77.7492" stroke="#DEE3ED" stroke-opacity="0.7" stroke-width="0.826836" stroke-linecap="round" stroke-dasharray="0.83 2.48"/>
<line x1="14.4701" y1="112.306" x2="372.587" y2="112.306" stroke="#DEE3ED" stroke-opacity="0.7" stroke-width="0.826836" stroke-linecap="round" stroke-dasharray="0.83 2.48"/>
<line x1="14.4701" y1="146.864" x2="372.587" y2="146.864" stroke="#DEE3ED" stroke-opacity="0.7" stroke-width="0.826836" stroke-linecap="round" stroke-dasharray="0.83 2.48"/>
<line x1="14.4701" y1="181.443" x2="372.587" y2="181.443" stroke="#DEE3ED" stroke-opacity="0.7" stroke-width="0.826836" stroke-linecap="round" stroke-dasharray="0.83 2.48"/>
</g>
<path d="M17.1696 204.221V198.207H17.8978V203.575H20.693V204.221H17.1696ZM23.0537 204.326C22.768 204.326 22.5086 204.273 22.2756 204.165C22.0427 204.055 21.8577 203.898 21.7207 203.692C21.5837 203.485 21.5152 203.234 21.5152 202.941C21.5152 202.682 21.5661 202.473 21.6679 202.312C21.7696 202.15 21.9057 202.022 22.076 201.93C22.2463 201.838 22.4342 201.77 22.6397 201.725C22.8472 201.678 23.0557 201.641 23.2652 201.613C23.5392 201.578 23.7614 201.552 23.9317 201.534C24.1039 201.514 24.2292 201.482 24.3075 201.437C24.3878 201.392 24.4279 201.314 24.4279 201.202V201.179C24.4279 200.889 24.3486 200.664 24.1901 200.503C24.0335 200.343 23.7956 200.263 23.4766 200.263C23.1457 200.263 22.8864 200.335 22.6985 200.48C22.5105 200.625 22.3784 200.779 22.3021 200.944L21.6444 200.709C21.7618 200.435 21.9184 200.222 22.1142 200.069C22.3119 199.914 22.5272 199.807 22.7601 199.746C22.995 199.683 23.226 199.652 23.4531 199.652C23.5979 199.652 23.7643 199.67 23.9522 199.705C24.1421 199.738 24.3251 199.808 24.5013 199.913C24.6794 200.019 24.8272 200.179 24.9447 200.392C25.0621 200.605 25.1208 200.891 25.1208 201.249V204.221H24.4279V203.61H24.3927C24.3457 203.708 24.2674 203.813 24.1578 203.924C24.0481 204.036 23.9023 204.131 23.7203 204.209C23.5382 204.287 23.316 204.326 23.0537 204.326ZM23.1594 203.704C23.4335 203.704 23.6645 203.65 23.8524 203.542C24.0423 203.435 24.1852 203.296 24.2811 203.125C24.379 202.955 24.4279 202.776 24.4279 202.588V201.954C24.3985 201.989 24.3339 202.021 24.2341 202.051C24.1362 202.078 24.0227 202.103 23.8935 202.124C23.7663 202.144 23.642 202.161 23.5206 202.177C23.4012 202.191 23.3043 202.203 23.2299 202.212C23.0498 202.236 22.8815 202.274 22.7249 202.327C22.5702 202.378 22.445 202.455 22.3491 202.559C22.2551 202.661 22.2081 202.8 22.2081 202.976C22.2081 203.217 22.2972 203.399 22.4753 203.522C22.6554 203.643 22.8834 203.704 23.1594 203.704ZM26.4796 204.221V198.207H27.1725V200.427H27.2312C27.2821 200.349 27.3526 200.249 27.4426 200.128C27.5346 200.004 27.6658 199.895 27.8361 199.799C28.0083 199.701 28.2413 199.652 28.5349 199.652C28.9147 199.652 29.2494 199.747 29.5391 199.937C29.8288 200.127 30.0549 200.396 30.2174 200.744C30.3798 201.093 30.4611 201.504 30.4611 201.977C30.4611 202.455 30.3798 202.869 30.2174 203.219C30.0549 203.568 29.8298 203.838 29.542 204.03C29.2543 204.22 28.9225 204.315 28.5467 204.315C28.2569 204.315 28.025 204.267 27.8508 204.171C27.6766 204.073 27.5425 203.962 27.4485 203.839C27.3546 203.714 27.2821 203.61 27.2312 203.528H27.149V204.221H26.4796ZM27.1608 201.966C27.1608 202.306 27.2107 202.607 27.3105 202.867C27.4103 203.125 27.5562 203.328 27.748 203.475C27.9398 203.62 28.1747 203.692 28.4527 203.692C28.7424 203.692 28.9841 203.616 29.1779 203.463C29.3737 203.309 29.5205 203.101 29.6184 202.841C29.7182 202.578 29.7681 202.287 29.7681 201.966C29.7681 201.649 29.7192 201.363 29.6213 201.108C29.5254 200.852 29.3796 200.649 29.1838 200.501C28.99 200.35 28.7463 200.274 28.4527 200.274C28.1708 200.274 27.934 200.346 27.7421 200.489C27.5503 200.63 27.4054 200.827 27.3076 201.082C27.2097 201.334 27.1608 201.629 27.1608 201.966ZM33.4119 204.315C32.9774 204.315 32.6025 204.219 32.2874 204.027C31.9742 203.833 31.7324 203.563 31.5621 203.217C31.3938 202.868 31.3096 202.463 31.3096 202.001C31.3096 201.539 31.3938 201.132 31.5621 200.779C31.7324 200.425 31.9693 200.149 32.2727 199.951C32.5781 199.752 32.9343 199.652 33.3415 199.652C33.5764 199.652 33.8083 199.691 34.0374 199.769C34.2664 199.848 34.4749 199.975 34.6628 200.151C34.8507 200.325 35.0004 200.556 35.112 200.844C35.2236 201.132 35.2794 201.486 35.2794 201.907V202.201H31.8029V201.602H34.5747C34.5747 201.347 34.5238 201.12 34.422 200.92C34.3222 200.721 34.1793 200.563 33.9933 200.448C33.8093 200.332 33.592 200.274 33.3415 200.274C33.0655 200.274 32.8267 200.343 32.625 200.48C32.4254 200.615 32.2717 200.791 32.1641 201.008C32.0564 201.226 32.0026 201.459 32.0026 201.707V202.107C32.0026 202.447 32.0613 202.736 32.1787 202.973C32.2981 203.208 32.4636 203.387 32.675 203.51C32.8864 203.632 33.132 203.692 33.4119 203.692C33.594 203.692 33.7584 203.667 33.9052 203.616C34.054 203.563 34.1822 203.485 34.2899 203.381C34.3975 203.275 34.4807 203.144 34.5395 202.987L35.2089 203.175C35.1384 203.402 35.02 203.602 34.8536 203.774C34.6872 203.945 34.4817 204.078 34.237 204.174C33.9923 204.268 33.7173 204.315 33.4119 204.315ZM37.0264 198.207V204.221H36.3335V198.207H37.0264Z" fill="#5C6370"/>
<path d="M83.4254 204.221V198.207H84.1536V203.575H86.9489V204.221H83.4254ZM89.3096 204.326C89.0238 204.326 88.7644 204.273 88.5315 204.165C88.2986 204.055 88.1136 203.898 87.9766 203.692C87.8395 203.485 87.771 203.234 87.771 202.941C87.771 202.682 87.8219 202.473 87.9237 202.312C88.0255 202.15 88.1615 202.022 88.3318 201.93C88.5021 201.838 88.6901 201.77 88.8956 201.725C89.1031 201.678 89.3116 201.641 89.521 201.613C89.7951 201.578 90.0172 201.552 90.1875 201.534C90.3598 201.514 90.4851 201.482 90.5634 201.437C90.6436 201.392 90.6837 201.314 90.6837 201.202V201.179C90.6837 200.889 90.6045 200.664 90.4459 200.503C90.2893 200.343 90.0515 200.263 89.7324 200.263C89.4016 200.263 89.1422 200.335 88.9543 200.48C88.7664 200.625 88.6343 200.779 88.5579 200.944L87.9002 200.709C88.0177 200.435 88.1743 200.222 88.37 200.069C88.5677 199.914 88.783 199.807 89.016 199.746C89.2509 199.683 89.4819 199.652 89.7089 199.652C89.8538 199.652 90.0202 199.67 90.2081 199.705C90.398 199.738 90.581 199.808 90.7572 199.913C90.9353 200.019 91.0831 200.179 91.2005 200.392C91.318 200.605 91.3767 200.891 91.3767 201.249V204.221H90.6837V203.61H90.6485C90.6015 203.708 90.5232 203.813 90.4136 203.924C90.304 204.036 90.1582 204.131 89.9761 204.209C89.7941 204.287 89.5719 204.326 89.3096 204.326ZM89.4153 203.704C89.6894 203.704 89.9203 203.65 90.1083 203.542C90.2981 203.435 90.441 203.296 90.5369 203.125C90.6348 202.955 90.6837 202.776 90.6837 202.588V201.954C90.6544 201.989 90.5898 202.021 90.49 202.051C90.3921 202.078 90.2786 202.103 90.1494 202.124C90.0221 202.144 89.8978 202.161 89.7765 202.177C89.6571 202.191 89.5602 202.203 89.4858 202.212C89.3057 202.236 89.1373 202.274 88.9807 202.327C88.8261 202.378 88.7008 202.455 88.6049 202.559C88.511 202.661 88.464 202.8 88.464 202.976C88.464 203.217 88.553 203.399 88.7312 203.522C88.9113 203.643 89.1393 203.704 89.4153 203.704ZM92.7354 204.221V198.207H93.4284V200.427H93.4871C93.538 200.349 93.6085 200.249 93.6985 200.128C93.7905 200.004 93.9216 199.895 94.0919 199.799C94.2642 199.701 94.4971 199.652 94.7908 199.652C95.1705 199.652 95.5052 199.747 95.7949 199.937C96.0847 200.127 96.3107 200.396 96.4732 200.744C96.6357 201.093 96.7169 201.504 96.7169 201.977C96.7169 202.455 96.6357 202.869 96.4732 203.219C96.3107 203.568 96.0856 203.838 95.7979 204.03C95.5101 204.22 95.1783 204.315 94.8025 204.315C94.5128 204.315 94.2808 204.267 94.1066 204.171C93.9324 204.073 93.7983 203.962 93.7044 203.839C93.6104 203.714 93.538 203.61 93.4871 203.528H93.4049V204.221H92.7354ZM93.4166 201.966C93.4166 202.306 93.4665 202.607 93.5664 202.867C93.6662 203.125 93.812 203.328 94.0039 203.475C94.1957 203.62 94.4306 203.692 94.7086 203.692C94.9983 203.692 95.24 203.616 95.4338 203.463C95.6295 203.309 95.7764 203.101 95.8742 202.841C95.9741 202.578 96.024 202.287 96.024 201.966C96.024 201.649 95.975 201.363 95.8772 201.108C95.7812 200.852 95.6354 200.649 95.4397 200.501C95.2459 200.35 95.0022 200.274 94.7086 200.274C94.4267 200.274 94.1898 200.346 93.998 200.489C93.8062 200.63 93.6613 200.827 93.5634 201.082C93.4656 201.334 93.4166 201.629 93.4166 201.966ZM99.6678 204.315C99.2332 204.315 98.8584 204.219 98.5432 204.027C98.23 203.833 97.9883 203.563 97.818 203.217C97.6497 202.868 97.5655 202.463 97.5655 202.001C97.5655 201.539 97.6497 201.132 97.818 200.779C97.9883 200.425 98.2252 200.149 98.5286 199.951C98.8339 199.752 99.1902 199.652 99.5973 199.652C99.8322 199.652 100.064 199.691 100.293 199.769C100.522 199.848 100.731 199.975 100.919 200.151C101.107 200.325 101.256 200.556 101.368 200.844C101.479 201.132 101.535 201.486 101.535 201.907V202.201H98.0588V201.602H100.831C100.831 201.347 100.78 201.12 100.678 200.92C100.578 200.721 100.435 200.563 100.249 200.448C100.065 200.332 99.8479 200.274 99.5973 200.274C99.3213 200.274 99.0825 200.343 98.8809 200.48C98.6812 200.615 98.5276 200.791 98.4199 201.008C98.3123 201.226 98.2584 201.459 98.2584 201.707V202.107C98.2584 202.447 98.3172 202.736 98.4346 202.973C98.554 203.208 98.7194 203.387 98.9308 203.51C99.1422 203.632 99.3879 203.692 99.6678 203.692C99.8499 203.692 100.014 203.667 100.161 203.616C100.31 203.563 100.438 203.485 100.546 203.381C100.653 203.275 100.737 203.144 100.795 202.987L101.465 203.175C101.394 203.402 101.276 203.602 101.109 203.774C100.943 203.945 100.738 204.078 100.493 204.174C100.248 204.268 99.9732 204.315 99.6678 204.315ZM103.282 198.207V204.221H102.589V198.207H103.282Z" fill="#5C6370"/>
<path d="M149.681 204.221V198.207H150.409V203.575H153.205V204.221H149.681ZM155.565 204.326C155.28 204.326 155.02 204.273 154.787 204.165C154.554 204.055 154.369 203.898 154.232 203.692C154.095 203.485 154.027 203.234 154.027 202.941C154.027 202.682 154.078 202.473 154.18 202.312C154.281 202.15 154.417 202.022 154.588 201.93C154.758 201.838 154.946 201.77 155.151 201.725C155.359 201.678 155.567 201.641 155.777 201.613C156.051 201.578 156.273 201.552 156.443 201.534C156.616 201.514 156.741 201.482 156.819 201.437C156.899 201.392 156.94 201.314 156.94 201.202V201.179C156.94 200.889 156.86 200.664 156.702 200.503C156.545 200.343 156.307 200.263 155.988 200.263C155.657 200.263 155.398 200.335 155.21 200.48C155.022 200.625 154.89 200.779 154.814 200.944L154.156 200.709C154.274 200.435 154.43 200.222 154.626 200.069C154.824 199.914 155.039 199.807 155.272 199.746C155.507 199.683 155.738 199.652 155.965 199.652C156.11 199.652 156.276 199.67 156.464 199.705C156.654 199.738 156.837 199.808 157.013 199.913C157.191 200.019 157.339 200.179 157.456 200.392C157.574 200.605 157.633 200.891 157.633 201.249V204.221H156.94V203.61H156.904C156.857 203.708 156.779 203.813 156.669 203.924C156.56 204.036 156.414 204.131 156.232 204.209C156.05 204.287 155.828 204.326 155.565 204.326ZM155.671 203.704C155.945 203.704 156.176 203.65 156.364 203.542C156.554 203.435 156.697 203.296 156.793 203.125C156.891 202.955 156.94 202.776 156.94 202.588V201.954C156.91 201.989 156.846 202.021 156.746 202.051C156.648 202.078 156.534 202.103 156.405 202.124C156.278 202.144 156.154 202.161 156.032 202.177C155.913 202.191 155.816 202.203 155.742 202.212C155.562 202.236 155.393 202.274 155.237 202.327C155.082 202.378 154.957 202.455 154.861 202.559C154.767 202.661 154.72 202.8 154.72 202.976C154.72 203.217 154.809 203.399 154.987 203.522C155.167 203.643 155.395 203.704 155.671 203.704ZM158.991 204.221V198.207H159.684V200.427H159.743C159.794 200.349 159.864 200.249 159.954 200.128C160.046 200.004 160.178 199.895 160.348 199.799C160.52 199.701 160.753 199.652 161.047 199.652C161.426 199.652 161.761 199.747 162.051 199.937C162.341 200.127 162.567 200.396 162.729 200.744C162.892 201.093 162.973 201.504 162.973 201.977C162.973 202.455 162.892 202.869 162.729 203.219C162.567 203.568 162.341 203.838 162.054 204.03C161.766 204.22 161.434 204.315 161.058 204.315C160.769 204.315 160.537 204.267 160.362 204.171C160.188 204.073 160.054 203.962 159.96 203.839C159.866 203.714 159.794 203.61 159.743 203.528H159.661V204.221H158.991ZM159.672 201.966C159.672 202.306 159.722 202.607 159.822 202.867C159.922 203.125 160.068 203.328 160.26 203.475C160.452 203.62 160.686 203.692 160.964 203.692C161.254 203.692 161.496 203.616 161.69 203.463C161.885 203.309 162.032 203.101 162.13 202.841C162.23 202.578 162.28 202.287 162.28 201.966C162.28 201.649 162.231 201.363 162.133 201.108C162.037 200.852 161.891 200.649 161.696 200.501C161.502 200.35 161.258 200.274 160.964 200.274C160.683 200.274 160.446 200.346 160.254 200.489C160.062 200.63 159.917 200.827 159.819 201.082C159.721 201.334 159.672 201.629 159.672 201.966ZM165.924 204.315C165.489 204.315 165.114 204.219 164.799 204.027C164.486 203.833 164.244 203.563 164.074 203.217C163.906 202.868 163.821 202.463 163.821 202.001C163.821 201.539 163.906 201.132 164.074 200.779C164.244 200.425 164.481 200.149 164.784 199.951C165.09 199.752 165.446 199.652 165.853 199.652C166.088 199.652 166.32 199.691 166.549 199.769C166.778 199.848 166.987 199.975 167.174 200.151C167.362 200.325 167.512 200.556 167.624 200.844C167.735 201.132 167.791 201.486 167.791 201.907V202.201H164.315V201.602H167.086C167.086 201.347 167.036 201.12 166.934 200.92C166.834 200.721 166.691 200.563 166.505 200.448C166.321 200.332 166.104 200.274 165.853 200.274C165.577 200.274 165.338 200.343 165.137 200.48C164.937 200.615 164.783 200.791 164.676 201.008C164.568 201.226 164.514 201.459 164.514 201.707V202.107C164.514 202.447 164.573 202.736 164.69 202.973C164.81 203.208 164.975 203.387 165.187 203.51C165.398 203.632 165.644 203.692 165.924 203.692C166.106 203.692 166.27 203.667 166.417 203.616C166.566 203.563 166.694 203.485 166.802 203.381C166.909 203.275 166.992 203.144 167.051 202.987L167.721 203.175C167.65 203.402 167.532 203.602 167.365 203.774C167.199 203.945 166.993 204.078 166.749 204.174C166.504 204.268 166.229 204.315 165.924 204.315ZM169.538 198.207V204.221H168.845V198.207H169.538Z" fill="#5C6370"/>
<path d="M215.937 204.221V198.207H216.665V203.575H219.461V204.221H215.937ZM221.821 204.326C221.536 204.326 221.276 204.273 221.043 204.165C220.81 204.055 220.625 203.898 220.488 203.692C220.351 203.485 220.283 203.234 220.283 202.941C220.283 202.682 220.334 202.473 220.435 202.312C220.537 202.15 220.673 202.022 220.844 201.93C221.014 201.838 221.202 201.77 221.407 201.725C221.615 201.678 221.823 201.641 222.033 201.613C222.307 201.578 222.529 201.552 222.699 201.534C222.872 201.514 222.997 201.482 223.075 201.437C223.155 201.392 223.195 201.314 223.195 201.202V201.179C223.195 200.889 223.116 200.664 222.958 200.503C222.801 200.343 222.563 200.263 222.244 200.263C221.913 200.263 221.654 200.335 221.466 200.48C221.278 200.625 221.146 200.779 221.07 200.944L220.412 200.709C220.529 200.435 220.686 200.222 220.882 200.069C221.079 199.914 221.295 199.807 221.528 199.746C221.763 199.683 221.994 199.652 222.221 199.652C222.365 199.652 222.532 199.67 222.72 199.705C222.91 199.738 223.093 199.808 223.269 199.913C223.447 200.019 223.595 200.179 223.712 200.392C223.83 200.605 223.888 200.891 223.888 201.249V204.221H223.195V203.61H223.16C223.113 203.708 223.035 203.813 222.925 203.924C222.816 204.036 222.67 204.131 222.488 204.209C222.306 204.287 222.084 204.326 221.821 204.326ZM221.927 203.704C222.201 203.704 222.432 203.65 222.62 203.542C222.81 203.435 222.953 203.296 223.049 203.125C223.147 202.955 223.195 202.776 223.195 202.588V201.954C223.166 201.989 223.102 202.021 223.002 202.051C222.904 202.078 222.79 202.103 222.661 202.124C222.534 202.144 222.41 202.161 222.288 202.177C222.169 202.191 222.072 202.203 221.997 202.212C221.817 202.236 221.649 202.274 221.492 202.327C221.338 202.378 221.213 202.455 221.117 202.559C221.023 202.661 220.976 202.8 220.976 202.976C220.976 203.217 221.065 203.399 221.243 203.522C221.423 203.643 221.651 203.704 221.927 203.704ZM225.247 204.221V198.207H225.94V200.427H225.999C226.05 200.349 226.12 200.249 226.21 200.128C226.302 200.004 226.433 199.895 226.604 199.799C226.776 199.701 227.009 199.652 227.302 199.652C227.682 199.652 228.017 199.747 228.307 199.937C228.596 200.127 228.822 200.396 228.985 200.744C229.147 201.093 229.229 201.504 229.229 201.977C229.229 202.455 229.147 202.869 228.985 203.219C228.822 203.568 228.597 203.838 228.31 204.03C228.022 204.22 227.69 204.315 227.314 204.315C227.025 204.315 226.793 204.267 226.618 204.171C226.444 204.073 226.31 203.962 226.216 203.839C226.122 203.714 226.05 203.61 225.999 203.528H225.917V204.221H225.247ZM225.928 201.966C225.928 202.306 225.978 202.607 226.078 202.867C226.178 203.125 226.324 203.328 226.516 203.475C226.707 203.62 226.942 203.692 227.22 203.692C227.51 203.692 227.752 203.616 227.946 203.463C228.141 203.309 228.288 203.101 228.386 202.841C228.486 202.578 228.536 202.287 228.536 201.966C228.536 201.649 228.487 201.363 228.389 201.108C228.293 200.852 228.147 200.649 227.951 200.501C227.758 200.35 227.514 200.274 227.22 200.274C226.938 200.274 226.702 200.346 226.51 200.489C226.318 200.63 226.173 200.827 226.075 201.082C225.977 201.334 225.928 201.629 225.928 201.966ZM232.18 204.315C231.745 204.315 231.37 204.219 231.055 204.027C230.742 203.833 230.5 203.563 230.33 203.217C230.161 202.868 230.077 202.463 230.077 202.001C230.077 201.539 230.161 201.132 230.33 200.779C230.5 200.425 230.737 200.149 231.04 199.951C231.346 199.752 231.702 199.652 232.109 199.652C232.344 199.652 232.576 199.691 232.805 199.769C233.034 199.848 233.242 199.975 233.43 200.151C233.618 200.325 233.768 200.556 233.88 200.844C233.991 201.132 234.047 201.486 234.047 201.907V202.201H230.57V201.602H233.342C233.342 201.347 233.291 201.12 233.19 200.92C233.09 200.721 232.947 200.563 232.761 200.448C232.577 200.332 232.36 200.274 232.109 200.274C231.833 200.274 231.594 200.343 231.393 200.48C231.193 200.615 231.039 200.791 230.932 201.008C230.824 201.226 230.77 201.459 230.77 201.707V202.107C230.77 202.447 230.829 202.736 230.946 202.973C231.066 203.208 231.231 203.387 231.443 203.51C231.654 203.632 231.9 203.692 232.18 203.692C232.362 203.692 232.526 203.667 232.673 203.616C232.822 203.563 232.95 203.485 233.057 203.381C233.165 203.275 233.248 203.144 233.307 202.987L233.976 203.175C233.906 203.402 233.788 203.602 233.621 203.774C233.455 203.945 233.249 204.078 233.005 204.174C232.76 204.268 232.485 204.315 232.18 204.315ZM235.794 198.207V204.221H235.101V198.207H235.794Z" fill="#5C6370"/>
<path d="M282.193 204.221V198.207H282.921V203.575H285.716V204.221H282.193ZM288.077 204.326C287.791 204.326 287.532 204.273 287.299 204.165C287.066 204.055 286.881 203.898 286.744 203.692C286.607 203.485 286.539 203.234 286.539 202.941C286.539 202.682 286.59 202.473 286.691 202.312C286.793 202.15 286.929 202.022 287.099 201.93C287.27 201.838 287.458 201.77 287.663 201.725C287.871 201.678 288.079 201.641 288.289 201.613C288.563 201.578 288.785 201.552 288.955 201.534C289.127 201.514 289.253 201.482 289.331 201.437C289.411 201.392 289.451 201.314 289.451 201.202V201.179C289.451 200.889 289.372 200.664 289.213 200.503C289.057 200.343 288.819 200.263 288.5 200.263C288.169 200.263 287.91 200.335 287.722 200.48C287.534 200.625 287.402 200.779 287.326 200.944L286.668 200.709C286.785 200.435 286.942 200.222 287.138 200.069C287.335 199.914 287.551 199.807 287.784 199.746C288.018 199.683 288.249 199.652 288.477 199.652C288.621 199.652 288.788 199.67 288.976 199.705C289.166 199.738 289.349 199.808 289.525 199.913C289.703 200.019 289.851 200.179 289.968 200.392C290.086 200.605 290.144 200.891 290.144 201.249V204.221H289.451V203.61H289.416C289.369 203.708 289.291 203.813 289.181 203.924C289.072 204.036 288.926 204.131 288.744 204.209C288.562 204.287 288.339 204.326 288.077 204.326ZM288.183 203.704C288.457 203.704 288.688 203.65 288.876 203.542C289.066 203.435 289.209 203.296 289.305 203.125C289.402 202.955 289.451 202.776 289.451 202.588V201.954C289.422 201.989 289.357 202.021 289.258 202.051C289.16 202.078 289.046 202.103 288.917 202.124C288.79 202.144 288.665 202.161 288.544 202.177C288.425 202.191 288.328 202.203 288.253 202.212C288.073 202.236 287.905 202.274 287.748 202.327C287.594 202.378 287.468 202.455 287.372 202.559C287.279 202.661 287.232 202.8 287.232 202.976C287.232 203.217 287.321 203.399 287.499 203.522C287.679 203.643 287.907 203.704 288.183 203.704ZM291.503 204.221V198.207H292.196V200.427H292.255C292.306 200.349 292.376 200.249 292.466 200.128C292.558 200.004 292.689 199.895 292.86 199.799C293.032 199.701 293.265 199.652 293.558 199.652C293.938 199.652 294.273 199.747 294.563 199.937C294.852 200.127 295.078 200.396 295.241 200.744C295.403 201.093 295.484 201.504 295.484 201.977C295.484 202.455 295.403 202.869 295.241 203.219C295.078 203.568 294.853 203.838 294.565 204.03C294.278 204.22 293.946 204.315 293.57 204.315C293.28 204.315 293.048 204.267 292.874 204.171C292.7 204.073 292.566 203.962 292.472 203.839C292.378 203.714 292.306 203.61 292.255 203.528H292.172V204.221H291.503ZM292.184 201.966C292.184 202.306 292.234 202.607 292.334 202.867C292.434 203.125 292.58 203.328 292.771 203.475C292.963 203.62 293.198 203.692 293.476 203.692C293.766 203.692 294.008 203.616 294.201 203.463C294.397 203.309 294.544 203.101 294.642 202.841C294.742 202.578 294.792 202.287 294.792 201.966C294.792 201.649 294.743 201.363 294.645 201.108C294.549 200.852 294.403 200.649 294.207 200.501C294.013 200.35 293.77 200.274 293.476 200.274C293.194 200.274 292.957 200.346 292.766 200.489C292.574 200.63 292.429 200.827 292.331 201.082C292.233 201.334 292.184 201.629 292.184 201.966ZM298.435 204.315C298.001 204.315 297.626 204.219 297.311 204.027C296.998 203.833 296.756 203.563 296.586 203.217C296.417 202.868 296.333 202.463 296.333 202.001C296.333 201.539 296.417 201.132 296.586 200.779C296.756 200.425 296.993 200.149 297.296 199.951C297.602 199.752 297.958 199.652 298.365 199.652C298.6 199.652 298.832 199.691 299.061 199.769C299.29 199.848 299.498 199.975 299.686 200.151C299.874 200.325 300.024 200.556 300.135 200.844C300.247 201.132 300.303 201.486 300.303 201.907V202.201H296.826V201.602H299.598C299.598 201.347 299.547 201.12 299.445 200.92C299.346 200.721 299.203 200.563 299.017 200.448C298.833 200.332 298.615 200.274 298.365 200.274C298.089 200.274 297.85 200.343 297.648 200.48C297.449 200.615 297.295 200.791 297.187 201.008C297.08 201.226 297.026 201.459 297.026 201.707V202.107C297.026 202.447 297.085 202.736 297.202 202.973C297.322 203.208 297.487 203.387 297.698 203.51C297.91 203.632 298.155 203.692 298.435 203.692C298.617 203.692 298.782 203.667 298.929 203.616C299.077 203.563 299.206 203.485 299.313 203.381C299.421 203.275 299.504 203.144 299.563 202.987L300.232 203.175C300.162 203.402 300.043 203.602 299.877 203.774C299.711 203.945 299.505 204.078 299.26 204.174C299.016 204.268 298.741 204.315 298.435 204.315ZM302.05 198.207V204.221H301.357V198.207H302.05Z" fill="#5C6370"/>
<path d="M348.449 204.221V198.207H349.177V203.575H351.972V204.221H348.449ZM354.333 204.326C354.047 204.326 353.788 204.273 353.555 204.165C353.322 204.055 353.137 203.898 353 203.692C352.863 203.485 352.794 203.234 352.794 202.941C352.794 202.682 352.845 202.473 352.947 202.312C353.049 202.15 353.185 202.022 353.355 201.93C353.526 201.838 353.714 201.77 353.919 201.725C354.127 201.678 354.335 201.641 354.544 201.613C354.818 201.578 355.041 201.552 355.211 201.534C355.383 201.514 355.509 201.482 355.587 201.437C355.667 201.392 355.707 201.314 355.707 201.202V201.179C355.707 200.889 355.628 200.664 355.469 200.503C355.313 200.343 355.075 200.263 354.756 200.263C354.425 200.263 354.166 200.335 353.978 200.48C353.79 200.625 353.658 200.779 353.581 200.944L352.924 200.709C353.041 200.435 353.198 200.222 353.393 200.069C353.591 199.914 353.806 199.807 354.039 199.746C354.274 199.683 354.505 199.652 354.732 199.652C354.877 199.652 355.044 199.67 355.232 199.705C355.421 199.738 355.604 199.808 355.781 199.913C355.959 200.019 356.107 200.179 356.224 200.392C356.341 200.605 356.4 200.891 356.4 201.249V204.221H355.707V203.61H355.672C355.625 203.708 355.547 203.813 355.437 203.924C355.327 204.036 355.182 204.131 355 204.209C354.818 204.287 354.595 204.326 354.333 204.326ZM354.439 203.704C354.713 203.704 354.944 203.65 355.132 203.542C355.322 203.435 355.464 203.296 355.56 203.125C355.658 202.955 355.707 202.776 355.707 202.588V201.954C355.678 201.989 355.613 202.021 355.513 202.051C355.416 202.078 355.302 202.103 355.173 202.124C355.046 202.144 354.921 202.161 354.8 202.177C354.68 202.191 354.584 202.203 354.509 202.212C354.329 202.236 354.161 202.274 354.004 202.327C353.85 202.378 353.724 202.455 353.628 202.559C353.534 202.661 353.487 202.8 353.487 202.976C353.487 203.217 353.576 203.399 353.755 203.522C353.935 203.643 354.163 203.704 354.439 203.704ZM357.759 204.221V198.207H358.452V200.427H358.511C358.561 200.349 358.632 200.249 358.722 200.128C358.814 200.004 358.945 199.895 359.115 199.799C359.288 199.701 359.521 199.652 359.814 199.652C360.194 199.652 360.529 199.747 360.818 199.937C361.108 200.127 361.334 200.396 361.497 200.744C361.659 201.093 361.74 201.504 361.74 201.977C361.74 202.455 361.659 202.869 361.497 203.219C361.334 203.568 361.109 203.838 360.821 204.03C360.534 204.22 360.202 204.315 359.826 204.315C359.536 204.315 359.304 204.267 359.13 204.171C358.956 204.073 358.822 203.962 358.728 203.839C358.634 203.714 358.561 203.61 358.511 203.528H358.428V204.221H357.759ZM358.44 201.966C358.44 202.306 358.49 202.607 358.59 202.867C358.69 203.125 358.835 203.328 359.027 203.475C359.219 203.62 359.454 203.692 359.732 203.692C360.022 203.692 360.263 203.616 360.457 203.463C360.653 203.309 360.8 203.101 360.898 202.841C360.997 202.578 361.047 202.287 361.047 201.966C361.047 201.649 360.998 201.363 360.901 201.108C360.805 200.852 360.659 200.649 360.463 200.501C360.269 200.35 360.026 200.274 359.732 200.274C359.45 200.274 359.213 200.346 359.021 200.489C358.83 200.63 358.685 200.827 358.587 201.082C358.489 201.334 358.44 201.629 358.44 201.966ZM364.691 204.315C364.257 204.315 363.882 204.219 363.567 204.027C363.253 203.833 363.012 203.563 362.841 203.217C362.673 202.868 362.589 202.463 362.589 202.001C362.589 201.539 362.673 201.132 362.841 200.779C363.012 200.425 363.249 200.149 363.552 199.951C363.857 199.752 364.214 199.652 364.621 199.652C364.856 199.652 365.088 199.691 365.317 199.769C365.546 199.848 365.754 199.975 365.942 200.151C366.13 200.325 366.28 200.556 366.391 200.844C366.503 201.132 366.559 201.486 366.559 201.907V202.201H363.082V201.602H365.854C365.854 201.347 365.803 201.12 365.701 200.92C365.601 200.721 365.459 200.563 365.273 200.448C365.089 200.332 364.871 200.274 364.621 200.274C364.345 200.274 364.106 200.343 363.904 200.48C363.705 200.615 363.551 200.791 363.443 201.008C363.336 201.226 363.282 201.459 363.282 201.707V202.107C363.282 202.447 363.341 202.736 363.458 202.973C363.577 203.208 363.743 203.387 363.954 203.51C364.166 203.632 364.411 203.692 364.691 203.692C364.873 203.692 365.038 203.667 365.185 203.616C365.333 203.563 365.462 203.485 365.569 203.381C365.677 203.275 365.76 203.144 365.819 202.987L366.488 203.175C366.418 203.402 366.299 203.602 366.133 203.774C365.967 203.945 365.761 204.078 365.516 204.174C365.272 204.268 364.997 204.315 364.691 204.315ZM368.306 198.207V204.221H367.613V198.207H368.306Z" fill="#5C6370"/>
<path opacity="0.08" d="M15.3594 168.487V181.794H373.001V34.3906L350.648 54.8633L328.295 61.6875L305.943 54.8633L283.59 86.2547L261.238 76.7008L238.885 97.8559L216.533 101.268L194.18 120.376L171.827 103.998L149.475 134.024L127.122 128.565L104.77 142.896L82.4171 155.521L60.0645 155.862L37.7119 166.781L15.3594 168.487Z" fill="#258CF4"/>
<path d="M15.3594 168.487L37.7119 166.781L60.0645 155.862L82.4171 155.521L104.77 142.896L127.122 128.565L149.475 134.024L171.827 103.998L194.18 120.376L216.533 101.268L238.885 97.8559L261.238 76.7008L283.59 86.2547L305.943 54.8633L328.295 61.6875L350.648 54.8633L373.001 34.3906" stroke="#258CF4" stroke-width="1.65367"/>
<path opacity="0.08" d="M15.3594 173.39V181.794H373.001V117.646L350.648 114.424L328.295 101.976L305.943 87.1269L283.59 96.744L261.238 99.1577L238.885 89.9135L216.533 87.1016L194.18 89.0983L171.827 76.6631L149.475 125.621L127.122 139.269L104.77 152.917H82.4171L60.0645 166.566L37.7119 173.39H15.3594Z" fill="#667DF0"/>
<path d="M15.3594 173.39H37.7119L60.0645 166.566L82.4171 152.917H104.77L127.122 139.269L149.475 125.621L171.827 76.6631L194.18 89.0983L216.533 87.1016L238.885 89.9135L261.238 99.1577L283.59 96.744L305.943 87.1269L328.295 101.976L350.648 114.424L373.001 117.646" stroke="#667DF0" stroke-width="1.65367"/>
<rect x="16" y="236.478" width="9.04421" height="9.04421" rx="3.01474" fill="#258CF4"/>
<path d="M31.3055 237.422H32.2176L34.0419 240.493H34.1189L35.9432 237.422H36.8553L34.4786 241.289V244H33.6821V241.289L31.3055 237.422ZM39.0891 244.103C38.6437 244.103 38.253 243.997 37.9168 243.785C37.5828 243.573 37.3216 243.276 37.1331 242.895C36.9469 242.514 36.8537 242.069 36.8537 241.559C36.8537 241.045 36.9469 240.597 37.1331 240.213C37.3216 239.83 37.5828 239.532 37.9168 239.321C38.253 239.109 38.6437 239.003 39.0891 239.003C39.5344 239.003 39.9241 239.109 40.2581 239.321C40.5943 239.532 40.8555 239.83 41.0418 240.213C41.2302 240.597 41.3244 241.045 41.3244 241.559C41.3244 242.069 41.2302 242.514 41.0418 242.895C40.8555 243.276 40.5943 243.573 40.2581 243.785C39.9241 243.997 39.5344 244.103 39.0891 244.103ZM39.0891 243.422C39.4274 243.422 39.7057 243.335 39.9241 243.162C40.1425 242.988 40.3042 242.76 40.4091 242.478C40.514 242.195 40.5665 241.889 40.5665 241.559C40.5665 241.229 40.514 240.922 40.4091 240.637C40.3042 240.353 40.1425 240.122 39.9241 239.947C39.7057 239.771 39.4274 239.683 39.0891 239.683C38.7508 239.683 38.4724 239.771 38.254 239.947C38.0356 240.122 37.874 240.353 37.7691 240.637C37.6641 240.922 37.6117 241.229 37.6117 241.559C37.6117 241.889 37.6641 242.195 37.7691 242.478C37.874 242.76 38.0356 242.988 38.254 243.162C38.4724 243.335 38.7508 243.422 39.0891 243.422ZM45.5904 241.983V239.067H46.3484V244H45.5904V243.165H45.539C45.4234 243.415 45.2435 243.629 44.9994 243.804C44.7554 243.978 44.447 244.064 44.0745 244.064C43.7661 244.064 43.4921 243.997 43.2523 243.862C43.0125 243.725 42.824 243.519 42.687 243.245C42.55 242.969 42.4815 242.621 42.4815 242.201V239.067H43.2394V242.15C43.2394 242.51 43.3401 242.797 43.5413 243.011C43.7447 243.225 44.0038 243.332 44.3186 243.332C44.507 243.332 44.6986 243.284 44.8935 243.187C45.0904 243.091 45.2553 242.943 45.3881 242.744C45.523 242.545 45.5904 242.291 45.5904 241.983ZM47.7366 244V239.067H48.4689V239.812H48.5203C48.6102 239.568 48.773 239.37 49.0085 239.218C49.244 239.066 49.5095 238.99 49.805 238.99C49.8607 238.99 49.9302 238.991 50.0137 238.993C50.0973 238.995 50.1604 238.998 50.2032 239.003V239.773C50.1775 239.767 50.1187 239.757 50.0266 239.744C49.9367 239.729 49.8414 239.722 49.7407 239.722C49.5009 239.722 49.2868 239.772 49.0984 239.873C48.9121 239.971 48.7644 240.108 48.6552 240.284C48.5481 240.457 48.4946 240.656 48.4946 240.878V244H47.7366ZM57.3453 239.067C57.3068 238.741 57.1505 238.489 56.8764 238.309C56.6023 238.129 56.2662 238.039 55.8679 238.039C55.5767 238.039 55.3219 238.086 55.1035 238.18C54.8873 238.275 54.7181 238.404 54.5961 238.569C54.4762 238.734 54.4162 238.921 54.4162 239.131C54.4162 239.307 54.458 239.458 54.5415 239.584C54.6271 239.708 54.7363 239.812 54.8691 239.895C55.0018 239.977 55.141 240.044 55.2866 240.098C55.4322 240.149 55.566 240.191 55.6881 240.223L56.3561 240.403C56.5274 240.448 56.7179 240.51 56.9278 240.589C57.1398 240.668 57.3421 240.777 57.5348 240.914C57.7296 241.048 57.8902 241.222 58.0166 241.434C58.1429 241.646 58.206 241.906 58.206 242.214C58.206 242.57 58.1129 242.891 57.9266 243.178C57.7425 243.465 57.4727 243.693 57.1173 243.862C56.764 244.031 56.3347 244.116 55.8294 244.116C55.3583 244.116 54.9504 244.04 54.6057 243.888C54.2631 243.736 53.9933 243.524 53.7964 243.252C53.6015 242.98 53.4912 242.664 53.4655 242.304H54.2877C54.3092 242.553 54.3927 242.758 54.5383 242.921C54.686 243.081 54.8723 243.201 55.0971 243.281C55.3241 243.358 55.5682 243.396 55.8294 243.396C56.1334 243.396 56.4064 243.347 56.6484 243.248C56.8903 243.148 57.0819 243.009 57.2233 242.831C57.3646 242.651 57.4352 242.441 57.4352 242.201C57.4352 241.983 57.3742 241.805 57.2522 241.668C57.1301 241.531 56.9695 241.42 56.7704 241.334C56.5713 241.249 56.3561 241.174 56.1249 241.109L55.3155 240.878C54.8016 240.73 54.3948 240.52 54.095 240.245C53.7953 239.971 53.6454 239.613 53.6454 239.17C53.6454 238.801 53.745 238.48 53.9441 238.206C54.1454 237.93 54.4151 237.716 54.7534 237.564C55.0939 237.41 55.4739 237.332 55.8936 237.332C56.3176 237.332 56.6944 237.408 57.0241 237.56C57.3539 237.71 57.6151 237.916 57.8078 238.177C58.0026 238.438 58.1054 238.735 58.1161 239.067H57.3453ZM60.8646 244.116C60.5519 244.116 60.2682 244.057 60.0134 243.939C59.7586 243.819 59.5563 243.647 59.4064 243.422C59.2565 243.195 59.1816 242.921 59.1816 242.6C59.1816 242.317 59.2373 242.088 59.3486 241.912C59.46 241.735 59.6088 241.595 59.795 241.495C59.9813 241.394 60.1869 241.319 60.4117 241.27C60.6387 241.219 60.8667 241.178 61.0958 241.148C61.3956 241.109 61.6386 241.081 61.8249 241.061C62.0133 241.04 62.1503 241.005 62.236 240.955C62.3237 240.906 62.3676 240.82 62.3676 240.698V240.673C62.3676 240.356 62.2809 240.11 62.1075 239.934C61.9362 239.758 61.676 239.671 61.327 239.671C60.9652 239.671 60.6815 239.75 60.4759 239.908C60.2704 240.067 60.1259 240.236 60.0423 240.416L59.3229 240.159C59.4514 239.859 59.6227 239.626 59.8368 239.459C60.0531 239.289 60.2886 239.172 60.5434 239.105C60.8003 239.037 61.053 239.003 61.3013 239.003C61.4598 239.003 61.6418 239.022 61.8473 239.06C62.055 239.097 62.2552 239.173 62.4479 239.288C62.6428 239.404 62.8044 239.579 62.9329 239.812C63.0614 240.045 63.1256 240.358 63.1256 240.75V244H62.3676V243.332H62.3291C62.2777 243.439 62.1921 243.554 62.0722 243.676C61.9523 243.798 61.7927 243.902 61.5936 243.987C61.3945 244.073 61.1515 244.116 60.8646 244.116ZM60.9802 243.435C61.2799 243.435 61.5326 243.376 61.7381 243.258C61.9458 243.14 62.1021 242.988 62.2071 242.802C62.3141 242.616 62.3676 242.42 62.3676 242.214V241.521C62.3355 241.559 62.2649 241.594 62.1557 241.627C62.0486 241.657 61.9244 241.683 61.7831 241.707C61.6439 241.728 61.508 241.748 61.3752 241.765C61.2446 241.78 61.1386 241.792 61.0573 241.803C60.8603 241.829 60.6761 241.871 60.5048 241.928C60.3357 241.984 60.1987 242.069 60.0937 242.182C59.991 242.294 59.9396 242.446 59.9396 242.638C59.9396 242.902 60.037 243.101 60.2318 243.236C60.4288 243.368 60.6783 243.435 60.9802 243.435ZM68.3663 239.067L66.5421 244H65.7713L63.947 239.067H64.7692L66.131 242.998H66.1824L67.5441 239.067H68.3663ZM69.3668 244V239.067H70.1247V244H69.3668ZM69.7522 238.245C69.6044 238.245 69.4771 238.194 69.37 238.094C69.2651 237.993 69.2126 237.872 69.2126 237.731C69.2126 237.589 69.2651 237.468 69.37 237.368C69.4771 237.267 69.6044 237.217 69.7522 237.217C69.8999 237.217 70.0263 237.267 70.1312 237.368C70.2382 237.468 70.2918 237.589 70.2918 237.731C70.2918 237.872 70.2382 237.993 70.1312 238.094C70.0263 238.194 69.8999 238.245 69.7522 238.245ZM72.271 241.032V244H71.513V239.067H72.2453V239.838H72.3095C72.4251 239.587 72.6007 239.386 72.8362 239.234C73.0718 239.08 73.3758 239.003 73.7484 239.003C74.0824 239.003 74.3747 239.071 74.6252 239.208C74.8757 239.343 75.0705 239.549 75.2097 239.825C75.3489 240.099 75.4185 240.446 75.4185 240.865V244H74.6605V240.917C74.6605 240.529 74.5599 240.227 74.3586 240.011C74.1573 239.793 73.8811 239.683 73.53 239.683C73.288 239.683 73.0718 239.736 72.8812 239.841C72.6928 239.946 72.544 240.099 72.4348 240.3C72.3256 240.501 72.271 240.745 72.271 241.032ZM78.7948 245.953C78.4287 245.953 78.1139 245.906 77.8505 245.811C77.5872 245.719 77.3677 245.597 77.1921 245.445C77.0187 245.295 76.8806 245.135 76.7778 244.964L77.3816 244.54C77.4502 244.629 77.5369 244.732 77.6418 244.848C77.7467 244.966 77.8902 245.067 78.0722 245.153C78.2563 245.241 78.4972 245.285 78.7948 245.285C79.193 245.285 79.5217 245.188 79.7808 244.996C80.0399 244.803 80.1694 244.501 80.1694 244.09V243.088H80.1052C80.0495 243.178 79.9703 243.289 79.8675 243.422C79.7669 243.553 79.6213 243.669 79.4307 243.772C79.2423 243.873 78.9875 243.923 78.6663 243.923C78.2681 243.923 77.9105 243.829 77.5936 243.64C77.2789 243.452 77.0294 243.178 76.8453 242.818C76.6633 242.458 76.5723 242.022 76.5723 241.508C76.5723 241.002 76.6611 240.562 76.8389 240.188C77.0166 239.811 77.2639 239.52 77.5808 239.314C77.8977 239.106 78.2638 239.003 78.6792 239.003C79.0003 239.003 79.2551 239.056 79.4436 239.163C79.6341 239.268 79.7797 239.388 79.8804 239.523C79.9831 239.656 80.0624 239.765 80.118 239.85H80.1951V239.067H80.9274V244.141C80.9274 244.565 80.831 244.91 80.6383 245.175C80.4478 245.443 80.1908 245.639 79.8675 245.763C79.5463 245.89 79.1888 245.953 78.7948 245.953ZM78.7691 243.242C79.0731 243.242 79.3301 243.172 79.5399 243.033C79.7497 242.894 79.9093 242.694 80.0185 242.433C80.1277 242.171 80.1823 241.859 80.1823 241.495C80.1823 241.139 80.1287 240.826 80.0217 240.554C79.9146 240.282 79.7562 240.069 79.5463 239.915C79.3365 239.761 79.0774 239.683 78.7691 239.683C78.4479 239.683 78.1803 239.765 77.9662 239.928C77.7542 240.09 77.5947 240.309 77.4876 240.583C77.3827 240.857 77.3302 241.161 77.3302 241.495C77.3302 241.837 77.3838 242.14 77.4908 242.404C77.6 242.665 77.7606 242.871 77.9726 243.02C78.1867 243.168 78.4522 243.242 78.7691 243.242ZM85.8092 240.172L85.1283 240.364C85.0855 240.251 85.0223 240.141 84.9388 240.034C84.8575 239.924 84.7461 239.834 84.6048 239.764C84.4635 239.693 84.2826 239.658 84.062 239.658C83.7601 239.658 83.5085 239.727 83.3073 239.867C83.1081 240.004 83.0086 240.178 83.0086 240.39C83.0086 240.578 83.0771 240.727 83.2141 240.836C83.3512 240.946 83.5653 241.037 83.8565 241.109L84.5887 241.289C85.0298 241.396 85.3585 241.56 85.5747 241.781C85.791 241.999 85.8991 242.281 85.8991 242.625C85.8991 242.908 85.8178 243.161 85.655 243.383C85.4944 243.606 85.2696 243.782 84.9806 243.91C84.6915 244.039 84.3554 244.103 83.9721 244.103C83.4689 244.103 83.0525 243.994 82.7227 243.775C82.393 243.557 82.1842 243.238 82.0964 242.818L82.8159 242.638C82.8844 242.904 83.0139 243.103 83.2045 243.236C83.3972 243.368 83.6488 243.435 83.9592 243.435C84.3125 243.435 84.593 243.36 84.8007 243.21C85.0105 243.058 85.1155 242.876 85.1155 242.664C85.1155 242.493 85.0555 242.349 84.9356 242.234C84.8157 242.116 84.6316 242.028 84.3832 241.97L83.561 241.777C83.1092 241.67 82.7773 241.504 82.5654 241.28C82.3555 241.053 82.2506 240.769 82.2506 240.429C82.2506 240.15 82.3288 239.904 82.4851 239.69C82.6435 239.476 82.8587 239.308 83.1306 239.186C83.4047 239.064 83.7152 239.003 84.062 239.003C84.5502 239.003 84.9335 239.11 85.2118 239.324C85.4923 239.538 85.6914 239.82 85.8092 240.172Z" fill="#5C6370"/>
<path d="M20.3525 267H18.7393V260.567C18.7393 260.353 18.7415 260.139 18.7461 259.925C18.7507 259.711 18.7552 259.501 18.7598 259.296C18.7689 259.091 18.7803 258.895 18.7939 258.708C18.6982 258.813 18.5798 258.927 18.4385 259.05C18.3018 259.173 18.1559 259.3 18.001 259.433L16.8525 260.349L16.0459 259.33L19.0127 257.006H20.3525V267ZM27.1107 256.869C27.6895 256.869 28.2113 256.96 28.6762 257.143C29.141 257.32 29.5102 257.587 29.7836 257.942C30.057 258.298 30.1938 258.738 30.1938 259.262C30.1938 259.667 30.1094 260.021 29.9408 260.321C29.7768 260.622 29.5535 260.886 29.2709 261.114C28.9883 261.338 28.6716 261.536 28.3207 261.709C28.7126 261.9 29.0727 262.121 29.4008 262.372C29.7335 262.618 30.0001 262.908 30.2006 263.24C30.4057 263.573 30.5082 263.963 30.5082 264.409C30.5082 264.97 30.3646 265.455 30.0775 265.865C29.795 266.271 29.4008 266.585 28.8949 266.809C28.3891 267.027 27.7989 267.137 27.1244 267.137C26.3998 267.137 25.7823 267.03 25.2719 266.815C24.7615 266.601 24.3741 266.296 24.1098 265.899C23.8454 265.498 23.7133 265.02 23.7133 264.464C23.7133 264.004 23.8044 263.605 23.9867 263.268C24.169 262.93 24.4128 262.639 24.7182 262.393C25.0281 262.146 25.3676 261.939 25.7367 261.771C25.4223 261.584 25.1352 261.374 24.8754 261.142C24.6156 260.905 24.4083 260.633 24.2533 260.328C24.1029 260.018 24.0277 259.66 24.0277 259.255C24.0277 258.735 24.1667 258.3 24.4447 257.949C24.7227 257.594 25.0941 257.325 25.559 257.143C26.0284 256.96 26.5456 256.869 27.1107 256.869ZM25.2445 264.402C25.2445 264.84 25.3995 265.2 25.7094 265.482C26.0193 265.765 26.4818 265.906 27.0971 265.906C27.7077 265.906 28.1726 265.767 28.4916 265.489C28.8106 265.211 28.9701 264.844 28.9701 264.389C28.9701 264.097 28.8881 263.84 28.724 263.616C28.5645 263.393 28.348 263.195 28.0746 263.021C27.8057 262.844 27.5072 262.68 27.1791 262.529L26.9604 262.44C26.6049 262.591 26.2995 262.762 26.0443 262.953C25.7891 263.14 25.5909 263.352 25.4496 263.589C25.3129 263.826 25.2445 264.097 25.2445 264.402ZM27.0971 258.106C26.655 258.106 26.2904 258.216 26.0033 258.435C25.7208 258.649 25.5795 258.959 25.5795 259.364C25.5795 259.651 25.6479 259.897 25.7846 260.103C25.9258 260.308 26.115 260.485 26.352 260.636C26.5889 260.782 26.851 260.918 27.1381 261.046C27.4161 260.923 27.6667 260.788 27.89 260.643C28.1179 260.492 28.2979 260.314 28.4301 260.109C28.5668 259.9 28.6352 259.649 28.6352 259.357C28.6352 258.956 28.4916 258.649 28.2045 258.435C27.9219 258.216 27.5528 258.106 27.0971 258.106ZM32.5359 267V257.006H34.1766V265.605H38.4217V267H32.5359ZM43.0539 259.289C44.0109 259.289 44.7333 259.501 45.2209 259.925C45.7131 260.349 45.9592 261.009 45.9592 261.907V267H44.8176L44.51 265.927H44.4553C44.2411 266.2 44.0201 266.426 43.7922 266.604C43.5643 266.781 43.3 266.913 42.9992 267C42.703 267.091 42.3407 267.137 41.9123 267.137C41.4611 267.137 41.0578 267.055 40.7023 266.891C40.3469 266.722 40.0666 266.467 39.8615 266.125C39.6564 265.783 39.5539 265.35 39.5539 264.826C39.5539 264.047 39.8433 263.461 40.4221 263.069C41.0054 262.677 41.885 262.461 43.0607 262.42L44.3732 262.372V261.976C44.3732 261.451 44.2502 261.078 44.0041 260.854C43.7626 260.631 43.4208 260.52 42.9787 260.52C42.6005 260.52 42.2336 260.574 41.8781 260.684C41.5227 260.793 41.1763 260.927 40.8391 261.087L40.3195 259.952C40.6887 259.756 41.1079 259.597 41.5773 259.474C42.0513 259.351 42.5435 259.289 43.0539 259.289ZM44.3664 263.384L43.3889 263.418C42.5868 263.445 42.024 263.582 41.7004 263.828C41.3768 264.074 41.215 264.411 41.215 264.84C41.215 265.214 41.3267 265.487 41.55 265.66C41.7733 265.829 42.0673 265.913 42.4318 265.913C42.9878 265.913 43.4481 265.756 43.8127 265.441C44.1818 265.122 44.3664 264.655 44.3664 264.04V263.384ZM51.357 267.137C50.6415 267.137 50.0217 266.998 49.4977 266.72C48.9736 266.442 48.5702 266.016 48.2877 265.441C48.0051 264.867 47.8639 264.138 47.8639 263.254C47.8639 262.333 48.0188 261.581 48.3287 260.998C48.6386 260.415 49.067 259.984 49.6139 259.706C50.1653 259.428 50.7965 259.289 51.5074 259.289C51.9586 259.289 52.3665 259.335 52.7311 259.426C53.1002 259.512 53.4124 259.619 53.6676 259.747L53.1891 261.032C52.9111 260.918 52.6262 260.823 52.3346 260.745C52.0429 260.668 51.7626 260.629 51.4938 260.629C51.0517 260.629 50.6826 260.727 50.3863 260.923C50.0947 261.119 49.8759 261.41 49.7301 261.798C49.5888 262.185 49.5182 262.666 49.5182 263.24C49.5182 263.796 49.5911 264.266 49.7369 264.648C49.8827 265.027 50.0992 265.314 50.3863 265.51C50.6734 265.701 51.0266 265.797 51.4459 265.797C51.8606 265.797 52.232 265.747 52.5602 265.646C52.8883 265.546 53.1982 265.416 53.4898 265.257V266.651C53.2027 266.815 52.8951 266.936 52.567 267.014C52.2389 267.096 51.8355 267.137 51.357 267.137Z" fill="white"/>
<path d="M199.353 267H197.739V260.567C197.739 260.353 197.742 260.139 197.746 259.925C197.751 259.711 197.755 259.501 197.76 259.296C197.769 259.091 197.78 258.895 197.794 258.708C197.698 258.813 197.58 258.927 197.438 259.05C197.302 259.173 197.156 259.3 197.001 259.433L195.853 260.349L195.046 259.33L198.013 257.006H199.353V267ZM209.508 267H202.741V265.79L205.331 263.165C205.833 262.655 206.245 262.215 206.569 261.846C206.892 261.472 207.132 261.119 207.287 260.786C207.446 260.453 207.526 260.091 207.526 259.699C207.526 259.216 207.387 258.852 207.109 258.605C206.831 258.355 206.464 258.229 206.008 258.229C205.575 258.229 205.174 258.316 204.805 258.489C204.44 258.658 204.062 258.899 203.67 259.214L202.788 258.154C203.066 257.917 203.363 257.701 203.677 257.505C203.996 257.309 204.352 257.154 204.744 257.04C205.135 256.922 205.582 256.862 206.083 256.862C206.717 256.862 207.264 256.976 207.724 257.204C208.184 257.427 208.538 257.74 208.784 258.141C209.034 258.542 209.16 259.009 209.16 259.542C209.16 260.08 209.052 260.576 208.838 261.032C208.624 261.488 208.319 261.939 207.922 262.386C207.526 262.828 207.054 263.309 206.507 263.828L204.778 265.517V265.592H209.508V267ZM211.139 266.152C211.139 265.779 211.235 265.517 211.427 265.366C211.623 265.211 211.86 265.134 212.138 265.134C212.415 265.134 212.652 265.211 212.848 265.366C213.049 265.517 213.149 265.779 213.149 266.152C213.149 266.517 213.049 266.781 212.848 266.945C212.652 267.105 212.415 267.185 212.138 267.185C211.86 267.185 211.623 267.105 211.427 266.945C211.235 266.781 211.139 266.517 211.139 266.152ZM215.936 267L219.86 258.414H214.671V257.006H221.589V258.106L217.665 267H215.936ZM223.589 267V257.006H225.23V265.605H229.475V267H223.589ZM234.107 259.289C235.064 259.289 235.787 259.501 236.274 259.925C236.767 260.349 237.013 261.009 237.013 261.907V267H235.871L235.563 265.927H235.509C235.295 266.2 235.074 266.426 234.846 266.604C234.618 266.781 234.354 266.913 234.053 267C233.757 267.091 233.394 267.137 232.966 267.137C232.515 267.137 232.111 267.055 231.756 266.891C231.4 266.722 231.12 266.467 230.915 266.125C230.71 265.783 230.607 265.35 230.607 264.826C230.607 264.047 230.897 263.461 231.476 263.069C232.059 262.677 232.938 262.461 234.114 262.42L235.427 262.372V261.976C235.427 261.451 235.304 261.078 235.058 260.854C234.816 260.631 234.474 260.52 234.032 260.52C233.654 260.52 233.287 260.574 232.932 260.684C232.576 260.793 232.23 260.927 231.893 261.087L231.373 259.952C231.742 259.756 232.161 259.597 232.631 259.474C233.105 259.351 233.597 259.289 234.107 259.289ZM235.42 263.384L234.442 263.418C233.64 263.445 233.077 263.582 232.754 263.828C232.43 264.074 232.269 264.411 232.269 264.84C232.269 265.214 232.38 265.487 232.604 265.66C232.827 265.829 233.121 265.913 233.485 265.913C234.041 265.913 234.502 265.756 234.866 265.441C235.235 265.122 235.42 264.655 235.42 264.04V263.384ZM242.411 267.137C241.695 267.137 241.075 266.998 240.551 266.72C240.027 266.442 239.624 266.016 239.341 265.441C239.059 264.867 238.917 264.138 238.917 263.254C238.917 262.333 239.072 261.581 239.382 260.998C239.692 260.415 240.121 259.984 240.667 259.706C241.219 259.428 241.85 259.289 242.561 259.289C243.012 259.289 243.42 259.335 243.785 259.426C244.154 259.512 244.466 259.619 244.721 259.747L244.243 261.032C243.965 260.918 243.68 260.823 243.388 260.745C243.096 260.668 242.816 260.629 242.547 260.629C242.105 260.629 241.736 260.727 241.44 260.923C241.148 261.119 240.929 261.41 240.784 261.798C240.642 262.185 240.572 262.666 240.572 263.24C240.572 263.796 240.645 264.266 240.79 264.648C240.936 265.027 241.153 265.314 241.44 265.51C241.727 265.701 242.08 265.797 242.499 265.797C242.914 265.797 243.286 265.747 243.614 265.646C243.942 265.546 244.252 265.416 244.543 265.257V266.651C244.256 266.815 243.949 266.936 243.621 267.014C243.292 267.096 242.889 267.137 242.411 267.137Z" fill="white"/>
<rect x="194" y="236.478" width="9.04421" height="9.04421" rx="3.01474" fill="#3316C6"/>
<path d="M210.667 237.422V244H209.871V237.422H210.667ZM212.919 241.032V244H212.161V239.067H212.894V239.838H212.958C213.074 239.587 213.249 239.386 213.485 239.234C213.72 239.08 214.024 239.003 214.397 239.003C214.731 239.003 215.023 239.071 215.274 239.208C215.524 239.343 215.719 239.549 215.858 239.825C215.997 240.099 216.067 240.446 216.067 240.865V244H215.309V240.917C215.309 240.529 215.208 240.227 215.007 240.011C214.806 239.793 214.53 239.683 214.178 239.683C213.936 239.683 213.72 239.736 213.53 239.841C213.341 239.946 213.192 240.099 213.083 240.3C212.974 240.501 212.919 240.745 212.919 241.032ZM219.597 239.067V239.709H217.041V239.067H219.597ZM217.786 237.885H218.544V242.587C218.544 242.801 218.575 242.962 218.637 243.069C218.701 243.174 218.783 243.244 218.881 243.281C218.982 243.315 219.088 243.332 219.199 243.332C219.283 243.332 219.351 243.328 219.405 243.319C219.458 243.308 219.501 243.3 219.533 243.293L219.687 243.974C219.636 243.994 219.564 244.013 219.472 244.032C219.38 244.054 219.263 244.064 219.122 244.064C218.908 244.064 218.698 244.018 218.493 243.926C218.289 243.834 218.12 243.694 217.985 243.505C217.852 243.317 217.786 243.079 217.786 242.792V237.885ZM222.753 244.103C222.278 244.103 221.868 243.998 221.523 243.788C221.18 243.576 220.916 243.281 220.73 242.902C220.545 242.52 220.453 242.077 220.453 241.572C220.453 241.067 220.545 240.621 220.73 240.236C220.916 239.848 221.175 239.546 221.507 239.33C221.841 239.112 222.231 239.003 222.676 239.003C222.933 239.003 223.187 239.045 223.437 239.131C223.688 239.217 223.916 239.356 224.121 239.549C224.327 239.739 224.49 239.992 224.613 240.307C224.735 240.621 224.796 241.009 224.796 241.469V241.79H220.993V241.135H224.025C224.025 240.857 223.969 240.608 223.858 240.39C223.749 240.172 223.592 239.999 223.389 239.873C223.188 239.747 222.95 239.683 222.676 239.683C222.374 239.683 222.113 239.758 221.892 239.908C221.674 240.056 221.506 240.249 221.388 240.486C221.27 240.724 221.211 240.979 221.211 241.251V241.688C221.211 242.06 221.276 242.376 221.404 242.635C221.535 242.892 221.716 243.088 221.947 243.223C222.178 243.356 222.447 243.422 222.753 243.422C222.952 243.422 223.132 243.394 223.293 243.338C223.455 243.281 223.595 243.195 223.713 243.081C223.831 242.966 223.922 242.822 223.986 242.651L224.719 242.857C224.641 243.105 224.512 243.323 224.33 243.512C224.148 243.698 223.923 243.844 223.655 243.949C223.388 244.051 223.087 244.103 222.753 244.103ZM225.949 244V239.067H226.681V239.812H226.732C226.822 239.568 226.985 239.37 227.22 239.218C227.456 239.066 227.721 238.99 228.017 238.99C228.073 238.99 228.142 238.991 228.226 238.993C228.309 238.995 228.372 238.998 228.415 239.003V239.773C228.39 239.767 228.331 239.757 228.239 239.744C228.149 239.729 228.053 239.722 227.953 239.722C227.713 239.722 227.499 239.772 227.31 239.873C227.124 239.971 226.976 240.108 226.867 240.284C226.76 240.457 226.707 240.656 226.707 240.878V244H225.949ZM231.232 244.103C230.757 244.103 230.347 243.998 230.002 243.788C229.659 243.576 229.395 243.281 229.209 242.902C229.024 242.52 228.932 242.077 228.932 241.572C228.932 241.067 229.024 240.621 229.209 240.236C229.395 239.848 229.654 239.546 229.986 239.33C230.32 239.112 230.709 239.003 231.155 239.003C231.412 239.003 231.665 239.045 231.916 239.131C232.167 239.217 232.395 239.356 232.6 239.549C232.806 239.739 232.969 239.992 233.091 240.307C233.214 240.621 233.275 241.009 233.275 241.469V241.79H229.472V241.135H232.504C232.504 240.857 232.448 240.608 232.337 240.39C232.228 240.172 232.071 239.999 231.868 239.873C231.667 239.747 231.429 239.683 231.155 239.683C230.853 239.683 230.592 239.758 230.371 239.908C230.153 240.056 229.985 240.249 229.867 240.486C229.749 240.724 229.69 240.979 229.69 241.251V241.688C229.69 242.06 229.754 242.376 229.883 242.635C230.014 242.892 230.195 243.088 230.426 243.223C230.657 243.356 230.926 243.422 231.232 243.422C231.431 243.422 231.611 243.394 231.771 243.338C231.934 243.281 232.074 243.195 232.192 243.081C232.31 242.966 232.401 242.822 232.465 242.651L233.197 242.857C233.12 243.105 232.991 243.323 232.809 243.512C232.627 243.698 232.402 243.844 232.134 243.949C231.867 244.051 231.566 244.103 231.232 244.103ZM237.922 240.172L237.241 240.364C237.198 240.251 237.135 240.141 237.052 240.034C236.97 239.924 236.859 239.834 236.718 239.764C236.576 239.693 236.395 239.658 236.175 239.658C235.873 239.658 235.621 239.727 235.42 239.867C235.221 240.004 235.121 240.178 235.121 240.39C235.121 240.578 235.19 240.727 235.327 240.836C235.464 240.946 235.678 241.037 235.969 241.109L236.701 241.289C237.143 241.396 237.471 241.56 237.687 241.781C237.904 241.999 238.012 242.281 238.012 242.625C238.012 242.908 237.93 243.161 237.768 243.383C237.607 243.606 237.382 243.782 237.093 243.91C236.804 244.039 236.468 244.103 236.085 244.103C235.582 244.103 235.165 243.994 234.835 243.775C234.506 243.557 234.297 243.238 234.209 242.818L234.929 242.638C234.997 242.904 235.127 243.103 235.317 243.236C235.51 243.368 235.761 243.435 236.072 243.435C236.425 243.435 236.706 243.36 236.913 243.21C237.123 243.058 237.228 242.876 237.228 242.664C237.228 242.493 237.168 242.349 237.048 242.234C236.928 242.116 236.744 242.028 236.496 241.97L235.674 241.777C235.222 241.67 234.89 241.504 234.678 241.28C234.468 241.053 234.363 240.769 234.363 240.429C234.363 240.15 234.441 239.904 234.598 239.69C234.756 239.476 234.971 239.308 235.243 239.186C235.517 239.064 235.828 239.003 236.175 239.003C236.663 239.003 237.046 239.11 237.325 239.324C237.605 239.538 237.804 239.82 237.922 240.172ZM241.298 239.067V239.709H238.742V239.067H241.298ZM239.487 237.885H240.245V242.587C240.245 242.801 240.276 242.962 240.338 243.069C240.402 243.174 240.484 243.244 240.582 243.281C240.683 243.315 240.789 243.332 240.9 243.332C240.983 243.332 241.052 243.328 241.106 243.319C241.159 243.308 241.202 243.3 241.234 243.293L241.388 243.974C241.337 243.994 241.265 244.013 241.173 244.032C241.081 244.054 240.964 244.064 240.823 244.064C240.609 244.064 240.399 244.018 240.193 243.926C239.99 243.834 239.821 243.694 239.686 243.505C239.553 243.317 239.487 243.079 239.487 242.792V237.885Z" fill="#5C6370"/>
</svg>
